<?xml version="1.0" encoding="UTF-8" standalone="no"?>
<!DOCTYPE svg PUBLIC "-//W3C//DTD SVG 1.1//EN"
 "http://www.w3.org/Graphics/SVG/1.1/DTD/svg11.dtd">
<!-- Generated by graphviz version 2.44.0 (0)
 -->
<!-- Title: snakemake_dag Pages: 1 -->
<svg width="1246pt" height="1196pt"
 viewBox="0.00 0.00 1246.00 1196.00" xmlns="http://www.w3.org/2000/svg" xmlns:xlink="http://www.w3.org/1999/xlink">
<g id="graph0" class="graph" transform="scale(1 1) rotate(0) translate(4 1192)">
<title>snakemake_dag</title>
<polygon fill="white" stroke="transparent" points="-4,4 -4,-1192 1242,-1192 1242,4 -4,4"/>
<!-- 0 -->
<g id="node1" class="node">
<title>0</title>
<path fill="none" stroke="#d86656" stroke-width="2" d="M431.5,-36C431.5,-36 401.5,-36 401.5,-36 395.5,-36 389.5,-30 389.5,-24 389.5,-24 389.5,-12 389.5,-12 389.5,-6 395.5,0 401.5,0 401.5,0 431.5,0 431.5,0 437.5,0 443.5,-6 443.5,-12 443.5,-12 443.5,-24 443.5,-24 443.5,-30 437.5,-36 431.5,-36"/>
<text text-anchor="middle" x="416.5" y="-15.5" font-family="sans" font-size="10.00">all</text>
</g>
<!-- 1 -->
<g id="node2" class="node">
<title>1</title>
<path fill="none" stroke="#d87556" stroke-width="2" d="M495,-396C495,-396 442,-396 442,-396 436,-396 430,-390 430,-384 430,-384 430,-372 430,-372 430,-366 436,-360 442,-360 442,-360 495,-360 495,-360 501,-360 507,-366 507,-372 507,-372 507,-384 507,-384 507,-390 501,-396 495,-396"/>
<text text-anchor="middle" x="468.5" y="-375.5" font-family="sans" font-size="10.00">assign_label</text>
</g>
<!-- 1&#45;&gt;0 -->
<g id="edge3" class="edge">
<title>1&#45;&gt;0</title>
<path fill="none" stroke="grey" stroke-width="2" d="M465.79,-359.67C462.16,-335.59 455.92,-290.61 453.5,-252 448.5,-172.15 476.23,-148.4 452.5,-72 449.46,-62.22 443.96,-52.63 438.15,-44.34"/>
<polygon fill="grey" stroke="grey" stroke-width="2" points="440.88,-42.14 432.08,-36.24 435.27,-46.34 440.88,-42.14"/>
</g>
<!-- 20 -->
<g id="node21" class="node">
<title>20</title>
<path fill="none" stroke="#56d8c9" stroke-width="2" d="M588.5,-252C588.5,-252 474.5,-252 474.5,-252 468.5,-252 462.5,-246 462.5,-240 462.5,-240 462.5,-228 462.5,-228 462.5,-222 468.5,-216 474.5,-216 474.5,-216 588.5,-216 588.5,-216 594.5,-216 600.5,-222 600.5,-228 600.5,-228 600.5,-240 600.5,-240 600.5,-246 594.5,-252 588.5,-252"/>
<text text-anchor="middle" x="531.5" y="-231.5" font-family="sans" font-size="10.00">plot_cluster_read_counts</text>
</g>
<!-- 1&#45;&gt;20 -->
<g id="edge29" class="edge">
<title>1&#45;&gt;20</title>
<path fill="none" stroke="grey" stroke-width="2" d="M476.1,-359.87C486.93,-335.46 506.91,-290.43 519.68,-261.64"/>
<polygon fill="grey" stroke="grey" stroke-width="2" points="523.02,-262.75 523.87,-252.19 516.62,-259.91 523.02,-262.75"/>
</g>
<!-- 21 -->
<g id="node22" class="node">
<title>21</title>
<path fill="none" stroke="#56d8b9" stroke-width="2" d="M137,-252C137,-252 12,-252 12,-252 6,-252 0,-246 0,-240 0,-240 0,-228 0,-228 0,-222 6,-216 12,-216 12,-216 137,-216 137,-216 143,-216 149,-222 149,-228 149,-228 149,-240 149,-240 149,-246 143,-252 137,-252"/>
<text text-anchor="middle" x="74.5" y="-231.5" font-family="sans" font-size="10.00">plot_cluster_bpm_max_rep</text>
</g>
<!-- 1&#45;&gt;21 -->
<g id="edge30" class="edge">
<title>1&#45;&gt;21</title>
<path fill="none" stroke="grey" stroke-width="2" d="M429.93,-374.12C377.21,-369.11 280.52,-356.07 204.5,-324 166.01,-307.76 127.17,-279.22 102.1,-258.84"/>
<polygon fill="grey" stroke="grey" stroke-width="2" points="104.09,-255.94 94.15,-252.26 99.63,-261.33 104.09,-255.94"/>
</g>
<!-- 22 -->
<g id="node23" class="node">
<title>22</title>
<path fill="none" stroke="#d6d856" stroke-width="2" d="M269,-324C269,-324 226,-324 226,-324 220,-324 214,-318 214,-312 214,-312 214,-300 214,-300 214,-294 220,-288 226,-288 226,-288 269,-288 269,-288 275,-288 281,-294 281,-300 281,-300 281,-312 281,-312 281,-318 275,-324 269,-324"/>
<text text-anchor="middle" x="247.5" y="-303.5" font-family="sans" font-size="10.00">cluster_all</text>
</g>
<!-- 1&#45;&gt;22 -->
<g id="edge31" class="edge">
<title>1&#45;&gt;22</title>
<path fill="none" stroke="grey" stroke-width="2" d="M429.75,-364.73C390.87,-352.41 331.1,-333.48 290.71,-320.69"/>
<polygon fill="grey" stroke="grey" stroke-width="2" points="291.72,-317.34 281.13,-317.65 289.61,-324.01 291.72,-317.34"/>
</g>
<!-- 24 -->
<g id="node25" class="node">
<title>24</title>
<path fill="none" stroke="#5682d8" stroke-width="2" d="M388,-324C388,-324 347,-324 347,-324 341,-324 335,-318 335,-312 335,-312 335,-300 335,-300 335,-294 341,-288 347,-288 347,-288 388,-288 388,-288 394,-288 400,-294 400,-300 400,-300 400,-312 400,-312 400,-318 394,-324 388,-324"/>
<text text-anchor="middle" x="367.5" y="-303.5" font-family="sans" font-size="10.00">splitbams</text>
</g>
<!-- 1&#45;&gt;24 -->
<g id="edge33" class="edge">
<title>1&#45;&gt;24</title>
<path fill="none" stroke="grey" stroke-width="2" d="M443.79,-359.88C430.83,-350.89 414.77,-339.76 400.73,-330.03"/>
<polygon fill="grey" stroke="grey" stroke-width="2" points="402.52,-327.01 392.3,-324.19 398.53,-332.76 402.52,-327.01"/>
</g>
<!-- 30 -->
<g id="node31" class="node">
<title>30</title>
<path fill="none" stroke="#b6d856" stroke-width="2" d="M785,-180C785,-180 738,-180 738,-180 732,-180 726,-174 726,-168 726,-168 726,-156 726,-156 726,-150 732,-144 738,-144 738,-144 785,-144 785,-144 791,-144 797,-150 797,-156 797,-156 797,-168 797,-168 797,-174 791,-180 785,-180"/>
<text text-anchor="middle" x="761.5" y="-159.5" font-family="sans" font-size="10.00">count_bam</text>
</g>
<!-- 1&#45;&gt;30 -->
<g id="edge49" class="edge">
<title>1&#45;&gt;30</title>
<path fill="none" stroke="grey" stroke-width="2" d="M491.98,-359.85C544.27,-321.66 670.35,-229.57 729.66,-186.26"/>
<polygon fill="grey" stroke="grey" stroke-width="2" points="731.89,-188.96 737.91,-180.23 727.77,-183.3 731.89,-188.96"/>
</g>
<!-- 2 -->
<g id="node3" class="node">
<title>2</title>
<path fill="none" stroke="#56d88a" stroke-width="2" d="M872,-468C872,-468 821,-468 821,-468 815,-468 809,-462 809,-456 809,-456 809,-444 809,-444 809,-438 815,-432 821,-432 821,-432 872,-432 872,-432 878,-432 884,-438 884,-444 884,-444 884,-456 884,-456 884,-462 878,-468 872,-468"/>
<text text-anchor="middle" x="846.5" y="-447.5" font-family="sans" font-size="10.00">merge_dpm</text>
</g>
<!-- 2&#45;&gt;1 -->
<g id="edge12" class="edge">
<title>2&#45;&gt;1</title>
<path fill="none" stroke="grey" stroke-width="2" d="M808.87,-442.03C739.89,-429.26 593.26,-402.1 516.94,-387.97"/>
<polygon fill="grey" stroke="grey" stroke-width="2" points="517.57,-384.53 507.1,-386.15 516.29,-391.41 517.57,-384.53"/>
</g>
<!-- 2&#45;&gt;30 -->
<g id="edge51" class="edge">
<title>2&#45;&gt;30</title>
<path fill="none" stroke="grey" stroke-width="2" d="M844.66,-431.74C840.04,-392.27 825.96,-292.92 794.5,-216 790.7,-206.72 785.34,-197.22 780.04,-188.88"/>
<polygon fill="grey" stroke="grey" stroke-width="2" points="782.83,-186.75 774.39,-180.34 776.99,-190.61 782.83,-186.75"/>
</g>
<!-- 3 -->
<g id="node4" class="node">
<title>3</title>
<path fill="none" stroke="#70d856" stroke-width="2" d="M934,-540C934,-540 821,-540 821,-540 815,-540 809,-534 809,-528 809,-528 809,-516 809,-516 809,-510 815,-504 821,-504 821,-504 934,-504 934,-504 940,-504 946,-510 946,-516 946,-516 946,-528 946,-528 946,-534 940,-540 934,-540"/>
<text text-anchor="middle" x="877.5" y="-519.5" font-family="sans" font-size="10.00">extract_barcode_to_tags</text>
</g>
<!-- 3&#45;&gt;2 -->
<g id="edge13" class="edge">
<title>3&#45;&gt;2</title>
<path fill="none" stroke="grey" stroke-width="2" d="M869.84,-503.7C866.31,-495.73 862.04,-486.1 858.13,-477.26"/>
<polygon fill="grey" stroke="grey" stroke-width="2" points="861.32,-475.83 854.07,-468.1 854.92,-478.67 861.32,-475.83"/>
</g>
<!-- 3&#45;&gt;30 -->
<g id="edge50" class="edge">
<title>3&#45;&gt;30</title>
<path fill="none" stroke="grey" stroke-width="2" d="M884.58,-503.85C894.81,-477.49 912.5,-425.21 912.5,-379 912.5,-379 912.5,-379 912.5,-305 912.5,-246.21 851,-204.62 806.5,-182.22"/>
<polygon fill="grey" stroke="grey" stroke-width="2" points="807.81,-178.97 797.28,-177.74 804.74,-185.26 807.81,-178.97"/>
</g>
<!-- 4 -->
<g id="node5" class="node">
<title>4</title>
<path fill="none" stroke="#56d0d8" stroke-width="2" d="M930.5,-612C930.5,-612 874.5,-612 874.5,-612 868.5,-612 862.5,-606 862.5,-600 862.5,-600 862.5,-588 862.5,-588 862.5,-582 868.5,-576 874.5,-576 874.5,-576 930.5,-576 930.5,-576 936.5,-576 942.5,-582 942.5,-588 942.5,-588 942.5,-600 942.5,-600 942.5,-606 936.5,-612 930.5,-612"/>
<text text-anchor="middle" x="902.5" y="-591.5" font-family="sans" font-size="10.00">repeat_mask</text>
</g>
<!-- 4&#45;&gt;3 -->
<g id="edge14" class="edge">
<title>4&#45;&gt;3</title>
<path fill="none" stroke="grey" stroke-width="2" d="M896.32,-575.7C893.5,-567.81 890.11,-558.3 886.98,-549.55"/>
<polygon fill="grey" stroke="grey" stroke-width="2" points="890.27,-548.34 883.61,-540.1 883.68,-550.7 890.27,-548.34"/>
</g>
<!-- 4&#45;&gt;30 -->
<g id="edge46" class="edge">
<title>4&#45;&gt;30</title>
<path fill="none" stroke="grey" stroke-width="2" d="M924.9,-575.87C935.73,-566.43 947.98,-553.83 955.5,-540 974.82,-504.46 974.5,-491.45 974.5,-451 974.5,-451 974.5,-451 974.5,-305 974.5,-225.22 869.77,-187.51 807.19,-172.09"/>
<polygon fill="grey" stroke="grey" stroke-width="2" points="807.69,-168.61 797.15,-169.72 806.08,-175.42 807.69,-168.61"/>
</g>
<!-- 5 -->
<g id="node6" class="node">
<title>5</title>
<path fill="none" stroke="#56d8d8" stroke-width="2" d="M857,-684C857,-684 756,-684 756,-684 750,-684 744,-678 744,-672 744,-672 744,-660 744,-660 744,-654 750,-648 756,-648 756,-648 857,-648 857,-648 863,-648 869,-654 869,-660 869,-660 869,-672 869,-672 869,-678 863,-684 857,-684"/>
<text text-anchor="middle" x="806.5" y="-663.5" font-family="sans" font-size="10.00">rename_and_filter_chr</text>
</g>
<!-- 5&#45;&gt;4 -->
<g id="edge16" class="edge">
<title>5&#45;&gt;4</title>
<path fill="none" stroke="grey" stroke-width="2" d="M830.23,-647.7C842.44,-638.8 857.49,-627.82 870.68,-618.2"/>
<polygon fill="grey" stroke="grey" stroke-width="2" points="873.02,-620.82 879.04,-612.1 868.9,-615.17 873.02,-620.82"/>
</g>
<!-- 5&#45;&gt;30 -->
<g id="edge52" class="edge">
<title>5&#45;&gt;30</title>
<path fill="none" stroke="grey" stroke-width="2" d="M801.24,-647.7C793.64,-621.14 780.5,-568.61 780.5,-523 780.5,-523 780.5,-523 780.5,-305 780.5,-264.86 772.95,-218.9 767.37,-190.4"/>
<polygon fill="grey" stroke="grey" stroke-width="2" points="770.76,-189.5 765.34,-180.39 763.89,-190.88 770.76,-189.5"/>
</g>
<!-- 6 -->
<g id="node7" class="node">
<title>6</title>
<path fill="none" stroke="#d8a456" stroke-width="2" d="M856,-756C856,-756 795,-756 795,-756 789,-756 783,-750 783,-744 783,-744 783,-732 783,-732 783,-726 789,-720 795,-720 795,-720 856,-720 856,-720 862,-720 868,-726 868,-732 868,-732 868,-744 868,-744 868,-750 862,-756 856,-756"/>
<text text-anchor="middle" x="825.5" y="-735.5" font-family="sans" font-size="10.00">bowtie2_align</text>
</g>
<!-- 6&#45;&gt;5 -->
<g id="edge17" class="edge">
<title>6&#45;&gt;5</title>
<path fill="none" stroke="grey" stroke-width="2" d="M820.8,-719.7C818.69,-711.9 816.14,-702.51 813.78,-693.83"/>
<polygon fill="grey" stroke="grey" stroke-width="2" points="817.14,-692.84 811.14,-684.1 810.38,-694.67 817.14,-692.84"/>
</g>
<!-- 6&#45;&gt;30 -->
<g id="edge48" class="edge">
<title>6&#45;&gt;30</title>
<path fill="none" stroke="grey" stroke-width="2" d="M868.24,-731.69C901.55,-725.49 946.95,-712.2 976.5,-684 1007.37,-654.54 1012.5,-637.67 1012.5,-595 1012.5,-595 1012.5,-595 1012.5,-305 1012.5,-211.83 879.86,-179.08 807.42,-168.14"/>
<polygon fill="grey" stroke="grey" stroke-width="2" points="807.59,-164.63 797.2,-166.68 806.6,-171.56 807.59,-164.63"/>
</g>
<!-- 7 -->
<g id="node8" class="node">
<title>7</title>
<path fill="none" stroke="#97d856" stroke-width="2" d="M856.5,-828C856.5,-828 794.5,-828 794.5,-828 788.5,-828 782.5,-822 782.5,-816 782.5,-816 782.5,-804 782.5,-804 782.5,-798 788.5,-792 794.5,-792 794.5,-792 856.5,-792 856.5,-792 862.5,-792 868.5,-798 868.5,-804 868.5,-804 868.5,-816 868.5,-816 868.5,-822 862.5,-828 856.5,-828"/>
<text text-anchor="middle" x="825.5" y="-807.5" font-family="sans" font-size="10.00">cutadapt_dpm</text>
</g>
<!-- 7&#45;&gt;6 -->
<g id="edge18" class="edge">
<title>7&#45;&gt;6</title>
<path fill="none" stroke="grey" stroke-width="2" d="M825.5,-791.7C825.5,-783.98 825.5,-774.71 825.5,-766.11"/>
<polygon fill="grey" stroke="grey" stroke-width="2" points="829,-766.1 825.5,-756.1 822,-766.1 829,-766.1"/>
</g>
<!-- 29 -->
<g id="node30" class="node">
<title>29</title>
<path fill="none" stroke="#a7d856" stroke-width="2" d="M643.5,-756C643.5,-756 577.5,-756 577.5,-756 571.5,-756 565.5,-750 565.5,-744 565.5,-744 565.5,-732 565.5,-732 565.5,-726 571.5,-720 577.5,-720 577.5,-720 643.5,-720 643.5,-720 649.5,-720 655.5,-726 655.5,-732 655.5,-732 655.5,-744 655.5,-744 655.5,-750 649.5,-756 643.5,-756"/>
<text text-anchor="middle" x="610.5" y="-735.5" font-family="sans" font-size="10.00">count_fastq_gz</text>
</g>
<!-- 7&#45;&gt;29 -->
<g id="edge44" class="edge">
<title>7&#45;&gt;29</title>
<path fill="none" stroke="grey" stroke-width="2" d="M782.37,-794.89C779.37,-793.91 776.39,-792.94 773.5,-792 737.48,-780.26 696.96,-767.08 665.34,-756.81"/>
<polygon fill="grey" stroke="grey" stroke-width="2" points="666.42,-753.48 655.83,-753.72 664.26,-760.13 666.42,-753.48"/>
</g>
<!-- 8 -->
<g id="node9" class="node">
<title>8</title>
<path fill="none" stroke="#56b1d8" stroke-width="2" d="M745.5,-900C745.5,-900 677.5,-900 677.5,-900 671.5,-900 665.5,-894 665.5,-888 665.5,-888 665.5,-876 665.5,-876 665.5,-870 671.5,-864 677.5,-864 677.5,-864 745.5,-864 745.5,-864 751.5,-864 757.5,-870 757.5,-876 757.5,-876 757.5,-888 757.5,-888 757.5,-894 751.5,-900 745.5,-900"/>
<text text-anchor="middle" x="711.5" y="-879.5" font-family="sans" font-size="10.00">split_bpm_dpm</text>
</g>
<!-- 8&#45;&gt;7 -->
<g id="edge19" class="edge">
<title>8&#45;&gt;7</title>
<path fill="none" stroke="grey" stroke-width="2" d="M739.39,-863.88C754.29,-854.72 772.83,-843.34 788.88,-833.48"/>
<polygon fill="grey" stroke="grey" stroke-width="2" points="790.81,-836.41 797.51,-828.19 787.15,-830.44 790.81,-836.41"/>
</g>
<!-- 16 -->
<g id="node17" class="node">
<title>16</title>
<path fill="none" stroke="#88d856" stroke-width="2" d="M752,-828C752,-828 687,-828 687,-828 681,-828 675,-822 675,-816 675,-816 675,-804 675,-804 675,-798 681,-792 687,-792 687,-792 752,-792 752,-792 758,-792 764,-798 764,-804 764,-804 764,-816 764,-816 764,-822 758,-828 752,-828"/>
<text text-anchor="middle" x="719.5" y="-807.5" font-family="sans" font-size="10.00">cutadapt_oligo</text>
</g>
<!-- 8&#45;&gt;16 -->
<g id="edge26" class="edge">
<title>8&#45;&gt;16</title>
<path fill="none" stroke="grey" stroke-width="2" d="M713.48,-863.7C714.36,-855.98 715.42,-846.71 716.4,-838.11"/>
<polygon fill="grey" stroke="grey" stroke-width="2" points="719.89,-838.44 717.55,-828.1 712.93,-837.64 719.89,-838.44"/>
</g>
<!-- 8&#45;&gt;29 -->
<g id="edge41" class="edge">
<title>8&#45;&gt;29</title>
<path fill="none" stroke="grey" stroke-width="2" d="M695.85,-863.84C686.89,-853.71 675.64,-840.46 666.5,-828 651.51,-807.57 636.32,-783.13 625.54,-765.03"/>
<polygon fill="grey" stroke="grey" stroke-width="2" points="628.43,-763.04 620.33,-756.2 622.4,-766.59 628.43,-763.04"/>
</g>
<!-- 9 -->
<g id="node10" class="node">
<title>9</title>
<path fill="none" stroke="#d88556" stroke-width="2" d="M719.5,-972C719.5,-972 673.5,-972 673.5,-972 667.5,-972 661.5,-966 661.5,-960 661.5,-960 661.5,-948 661.5,-948 661.5,-942 667.5,-936 673.5,-936 673.5,-936 719.5,-936 719.5,-936 725.5,-936 731.5,-942 731.5,-948 731.5,-948 731.5,-960 731.5,-960 731.5,-966 725.5,-972 719.5,-972"/>
<text text-anchor="middle" x="696.5" y="-951.5" font-family="sans" font-size="10.00">barcode_id</text>
</g>
<!-- 9&#45;&gt;8 -->
<g id="edge20" class="edge">
<title>9&#45;&gt;8</title>
<path fill="none" stroke="grey" stroke-width="2" d="M700.21,-935.7C701.86,-927.98 703.85,-918.71 705.69,-910.11"/>
<polygon fill="grey" stroke="grey" stroke-width="2" points="709.16,-910.62 707.83,-900.1 702.32,-909.15 709.16,-910.62"/>
</g>
<!-- 19 -->
<g id="node20" class="node">
<title>19</title>
<path fill="none" stroke="#d89556" stroke-width="2" d="M1060,-900C1060,-900 907,-900 907,-900 901,-900 895,-894 895,-888 895,-888 895,-876 895,-876 895,-870 901,-864 907,-864 907,-864 1060,-864 1060,-864 1066,-864 1072,-870 1072,-876 1072,-876 1072,-888 1072,-888 1072,-894 1066,-900 1060,-900"/>
<text text-anchor="middle" x="983.5" y="-879.5" font-family="sans" font-size="10.00">barcode_identification_efficiency</text>
</g>
<!-- 9&#45;&gt;19 -->
<g id="edge28" class="edge">
<title>9&#45;&gt;19</title>
<path fill="none" stroke="grey" stroke-width="2" d="M731.69,-944.42C774.26,-934.03 847.24,-916.23 903.71,-902.46"/>
<polygon fill="grey" stroke="grey" stroke-width="2" points="904.81,-905.8 913.69,-900.03 903.15,-899 904.81,-905.8"/>
</g>
<!-- 9&#45;&gt;29 -->
<g id="edge45" class="edge">
<title>9&#45;&gt;29</title>
<path fill="none" stroke="grey" stroke-width="2" d="M681.04,-935.94C672.77,-926.04 662.98,-913 656.5,-900 634.48,-855.82 621.43,-799.42 615.14,-766.44"/>
<polygon fill="grey" stroke="grey" stroke-width="2" points="618.51,-765.41 613.27,-756.21 611.63,-766.67 618.51,-765.41"/>
</g>
<!-- 10 -->
<g id="node11" class="node">
<title>10</title>
<path fill="none" stroke="#d85656" stroke-width="2" d="M728.5,-1044C728.5,-1044 648.5,-1044 648.5,-1044 642.5,-1044 636.5,-1038 636.5,-1032 636.5,-1032 636.5,-1020 636.5,-1020 636.5,-1014 642.5,-1008 648.5,-1008 648.5,-1008 728.5,-1008 728.5,-1008 734.5,-1008 740.5,-1014 740.5,-1020 740.5,-1020 740.5,-1032 740.5,-1032 740.5,-1038 734.5,-1044 728.5,-1044"/>
<text text-anchor="middle" x="688.5" y="-1023.5" font-family="sans" font-size="10.00">adaptor_trimming</text>
</g>
<!-- 10&#45;&gt;9 -->
<g id="edge21" class="edge">
<title>10&#45;&gt;9</title>
<path fill="none" stroke="grey" stroke-width="2" d="M690.48,-1007.7C691.36,-999.98 692.42,-990.71 693.4,-982.11"/>
<polygon fill="grey" stroke="grey" stroke-width="2" points="696.89,-982.44 694.55,-972.1 689.93,-981.64 696.89,-982.44"/>
</g>
<!-- 10&#45;&gt;29 -->
<g id="edge42" class="edge">
<title>10&#45;&gt;29</title>
<path fill="none" stroke="grey" stroke-width="2" d="M674.51,-1007.78C667.04,-997.83 658.23,-984.79 652.5,-972 621.32,-902.33 613.28,-811.14 611.21,-766.31"/>
<polygon fill="grey" stroke="grey" stroke-width="2" points="614.7,-766.05 610.81,-756.2 607.71,-766.33 614.7,-766.05"/>
</g>
<!-- 11 -->
<g id="node12" class="node">
<title>11</title>
<path fill="none" stroke="#c6d856" stroke-width="2" d="M683.5,-1116C683.5,-1116 613.5,-1116 613.5,-1116 607.5,-1116 601.5,-1110 601.5,-1104 601.5,-1104 601.5,-1092 601.5,-1092 601.5,-1086 607.5,-1080 613.5,-1080 613.5,-1080 683.5,-1080 683.5,-1080 689.5,-1080 695.5,-1086 695.5,-1092 695.5,-1092 695.5,-1104 695.5,-1104 695.5,-1110 689.5,-1116 683.5,-1116"/>
<text text-anchor="middle" x="648.5" y="-1095.5" font-family="sans" font-size="10.00">compress_fastq</text>
</g>
<!-- 11&#45;&gt;10 -->
<g id="edge22" class="edge">
<title>11&#45;&gt;10</title>
<path fill="none" stroke="grey" stroke-width="2" d="M658.39,-1079.7C662.99,-1071.64 668.56,-1061.89 673.65,-1052.98"/>
<polygon fill="grey" stroke="grey" stroke-width="2" points="676.8,-1054.52 678.73,-1044.1 670.73,-1051.05 676.8,-1054.52"/>
</g>
<!-- 11&#45;&gt;29 -->
<g id="edge40" class="edge">
<title>11&#45;&gt;29</title>
<path fill="none" stroke="grey" stroke-width="2" d="M640.41,-1079.95C628.72,-1053.72 608.5,-1001.61 608.5,-955 608.5,-955 608.5,-955 608.5,-881 608.5,-840.99 609.3,-794.65 609.89,-766.08"/>
<polygon fill="grey" stroke="grey" stroke-width="2" points="613.39,-766.12 610.1,-756.05 606.39,-765.97 613.39,-766.12"/>
</g>
<!-- 12 -->
<g id="node13" class="node">
<title>12</title>
<path fill="none" stroke="#56a2d8" stroke-width="2" d="M670.5,-1188C670.5,-1188 626.5,-1188 626.5,-1188 620.5,-1188 614.5,-1182 614.5,-1176 614.5,-1176 614.5,-1164 614.5,-1164 614.5,-1158 620.5,-1152 626.5,-1152 626.5,-1152 670.5,-1152 670.5,-1152 676.5,-1152 682.5,-1158 682.5,-1164 682.5,-1164 682.5,-1176 682.5,-1176 682.5,-1182 676.5,-1188 670.5,-1188"/>
<text text-anchor="middle" x="648.5" y="-1167.5" font-family="sans" font-size="10.00">split_fastq</text>
</g>
<!-- 12&#45;&gt;11 -->
<g id="edge23" class="edge">
<title>12&#45;&gt;11</title>
<path fill="none" stroke="grey" stroke-width="2" d="M648.5,-1151.7C648.5,-1143.98 648.5,-1134.71 648.5,-1126.11"/>
<polygon fill="grey" stroke="grey" stroke-width="2" points="652,-1126.1 648.5,-1116.1 645,-1126.1 652,-1126.1"/>
</g>
<!-- 13 -->
<g id="node14" class="node">
<title>13</title>
<path fill="none" stroke="#56d89a" stroke-width="2" d="M955.5,-684C955.5,-684 899.5,-684 899.5,-684 893.5,-684 887.5,-678 887.5,-672 887.5,-672 887.5,-660 887.5,-660 887.5,-654 893.5,-648 899.5,-648 899.5,-648 955.5,-648 955.5,-648 961.5,-648 967.5,-654 967.5,-660 967.5,-660 967.5,-672 967.5,-672 967.5,-678 961.5,-684 955.5,-684"/>
<text text-anchor="middle" x="927.5" y="-663.5" font-family="sans" font-size="10.00">merge_mask</text>
</g>
<!-- 13&#45;&gt;4 -->
<g id="edge15" class="edge">
<title>13&#45;&gt;4</title>
<path fill="none" stroke="grey" stroke-width="2" d="M921.32,-647.7C918.5,-639.81 915.11,-630.3 911.98,-621.55"/>
<polygon fill="grey" stroke="grey" stroke-width="2" points="915.27,-620.34 908.61,-612.1 908.68,-622.7 915.27,-620.34"/>
</g>
<!-- 14 -->
<g id="node15" class="node">
<title>14</title>
<path fill="none" stroke="#56d87b" stroke-width="2" d="M702,-468C702,-468 651,-468 651,-468 645,-468 639,-462 639,-456 639,-456 639,-444 639,-444 639,-438 645,-432 651,-432 651,-432 702,-432 702,-432 708,-432 714,-438 714,-444 714,-444 714,-456 714,-456 714,-462 708,-468 702,-468"/>
<text text-anchor="middle" x="676.5" y="-447.5" font-family="sans" font-size="10.00">merge_bpm</text>
</g>
<!-- 14&#45;&gt;1 -->
<g id="edge11" class="edge">
<title>14&#45;&gt;1</title>
<path fill="none" stroke="grey" stroke-width="2" d="M638.83,-436.32C604.66,-424.82 554.08,-407.8 516.92,-395.29"/>
<polygon fill="grey" stroke="grey" stroke-width="2" points="517.89,-391.93 507.3,-392.06 515.66,-398.56 517.89,-391.93"/>
</g>
<!-- 14&#45;&gt;30 -->
<g id="edge47" class="edge">
<title>14&#45;&gt;30</title>
<path fill="none" stroke="grey" stroke-width="2" d="M678.34,-431.74C682.96,-392.27 697.04,-292.92 728.5,-216 732.3,-206.72 737.66,-197.22 742.96,-188.88"/>
<polygon fill="grey" stroke="grey" stroke-width="2" points="746.01,-190.61 748.61,-180.34 740.17,-186.75 746.01,-190.61"/>
</g>
<!-- 15 -->
<g id="node16" class="node">
<title>15</title>
<path fill="none" stroke="#d8ac56" stroke-width="2" d="M740.5,-540C740.5,-540 654.5,-540 654.5,-540 648.5,-540 642.5,-534 642.5,-528 642.5,-528 642.5,-516 642.5,-516 642.5,-510 648.5,-504 654.5,-504 654.5,-504 740.5,-504 740.5,-504 746.5,-504 752.5,-510 752.5,-516 752.5,-516 752.5,-528 752.5,-528 752.5,-534 746.5,-540 740.5,-540"/>
<text text-anchor="middle" x="697.5" y="-519.5" font-family="sans" font-size="10.00">bpm_fastq_to_bam</text>
</g>
<!-- 15&#45;&gt;14 -->
<g id="edge24" class="edge">
<title>15&#45;&gt;14</title>
<path fill="none" stroke="grey" stroke-width="2" d="M692.31,-503.7C689.97,-495.9 687.15,-486.51 684.55,-477.83"/>
<polygon fill="grey" stroke="grey" stroke-width="2" points="687.86,-476.68 681.63,-468.1 681.15,-478.69 687.86,-476.68"/>
</g>
<!-- 15&#45;&gt;30 -->
<g id="edge53" class="edge">
<title>15&#45;&gt;30</title>
<path fill="none" stroke="grey" stroke-width="2" d="M707.28,-503.8C712.71,-493.65 719.21,-480.4 723.5,-468 736.73,-429.78 742.5,-419.45 742.5,-379 742.5,-379 742.5,-379 742.5,-305 742.5,-264.86 750.05,-218.9 755.63,-190.4"/>
<polygon fill="grey" stroke="grey" stroke-width="2" points="759.11,-190.88 757.66,-180.39 752.24,-189.5 759.11,-190.88"/>
</g>
<!-- 16&#45;&gt;15 -->
<g id="edge25" class="edge">
<title>16&#45;&gt;15</title>
<path fill="none" stroke="grey" stroke-width="2" d="M718.19,-791.97C714.52,-744.29 704.13,-609.18 699.63,-550.63"/>
<polygon fill="grey" stroke="grey" stroke-width="2" points="703.09,-550.01 698.83,-540.31 696.11,-550.55 703.09,-550.01"/>
</g>
<!-- 16&#45;&gt;29 -->
<g id="edge43" class="edge">
<title>16&#45;&gt;29</title>
<path fill="none" stroke="grey" stroke-width="2" d="M692.84,-791.88C678.72,-782.81 661.19,-771.55 645.94,-761.76"/>
<polygon fill="grey" stroke="grey" stroke-width="2" points="647.57,-758.65 637.27,-756.19 643.79,-764.54 647.57,-758.65"/>
</g>
<!-- 17 -->
<g id="node18" class="node">
<title>17</title>
<path fill="none" stroke="#56d86b" stroke-width="2" d="M146.5,-108C146.5,-108 104.5,-108 104.5,-108 98.5,-108 92.5,-102 92.5,-96 92.5,-96 92.5,-84 92.5,-84 92.5,-78 98.5,-72 104.5,-72 104.5,-72 146.5,-72 146.5,-72 152.5,-72 158.5,-78 158.5,-84 158.5,-84 158.5,-96 158.5,-96 158.5,-102 152.5,-108 146.5,-108"/>
<text text-anchor="middle" x="125.5" y="-87.5" font-family="sans" font-size="10.00">log_config</text>
</g>
<!-- 17&#45;&gt;0 -->
<g id="edge8" class="edge">
<title>17&#45;&gt;0</title>
<path fill="none" stroke="grey" stroke-width="2" d="M158.7,-76.37C163.3,-74.8 168,-73.3 172.5,-72 244.88,-51.15 331.41,-34.19 379.54,-25.44"/>
<polygon fill="grey" stroke="grey" stroke-width="2" points="380.27,-28.87 389.49,-23.65 379.03,-21.98 380.27,-28.87"/>
</g>
<!-- 18 -->
<g id="node19" class="node">
<title>18</title>
<path fill="none" stroke="#d8bc56" stroke-width="2" d="M1226,-612C1226,-612 1053,-612 1053,-612 1047,-612 1041,-606 1041,-600 1041,-600 1041,-588 1041,-588 1041,-582 1047,-576 1053,-576 1053,-576 1226,-576 1226,-576 1232,-576 1238,-582 1238,-588 1238,-588 1238,-600 1238,-600 1238,-606 1232,-612 1226,-612"/>
<text text-anchor="middle" x="1139.5" y="-591.5" font-family="sans" font-size="10.00">cat_barcode_identification_efficiency</text>
</g>
<!-- 18&#45;&gt;0 -->
<g id="edge1" class="edge">
<title>18&#45;&gt;0</title>
<path fill="none" stroke="grey" stroke-width="2" d="M1130.18,-575.63C1117,-549.41 1094.5,-497.81 1094.5,-451 1094.5,-451 1094.5,-451 1094.5,-161 1094.5,-29.14 597.02,-18.99 454.33,-18.79"/>
<polygon fill="grey" stroke="grey" stroke-width="2" points="453.92,-15.29 443.92,-18.79 453.92,-22.29 453.92,-15.29"/>
</g>
<!-- 19&#45;&gt;18 -->
<g id="edge27" class="edge">
<title>19&#45;&gt;18</title>
<path fill="none" stroke="grey" stroke-width="2" d="M992.79,-863.97C1019.01,-815.89 1093.72,-678.93 1125.22,-621.19"/>
<polygon fill="grey" stroke="grey" stroke-width="2" points="1128.34,-622.76 1130.06,-612.31 1122.2,-619.41 1128.34,-622.76"/>
</g>
<!-- 20&#45;&gt;0 -->
<g id="edge5" class="edge">
<title>20&#45;&gt;0</title>
<path fill="none" stroke="grey" stroke-width="2" d="M533.5,-215.77C536.24,-184.31 537.79,-116.68 507.5,-72 494.6,-52.97 472.42,-39.85 453.18,-31.42"/>
<polygon fill="grey" stroke="grey" stroke-width="2" points="454.32,-28.1 443.74,-27.54 451.66,-34.58 454.32,-28.1"/>
</g>
<!-- 21&#45;&gt;0 -->
<g id="edge4" class="edge">
<title>21&#45;&gt;0</title>
<path fill="none" stroke="grey" stroke-width="2" d="M69.29,-215.83C60.56,-183.25 47.29,-112.1 83.5,-72 122.33,-29 300.19,-20.81 378.88,-19.31"/>
<polygon fill="grey" stroke="grey" stroke-width="2" points="379.35,-22.8 389.29,-19.14 379.24,-15.8 379.35,-22.8"/>
</g>
<!-- 22&#45;&gt;0 -->
<g id="edge6" class="edge">
<title>22&#45;&gt;0</title>
<path fill="none" stroke="grey" stroke-width="2" d="M236.44,-287.94C210.94,-246.29 154.06,-137.96 205.5,-72 226.67,-44.86 324.64,-29.5 379.33,-22.9"/>
<polygon fill="grey" stroke="grey" stroke-width="2" points="379.8,-26.37 389.33,-21.74 378.99,-19.42 379.8,-26.37"/>
</g>
<!-- 23 -->
<g id="node24" class="node">
<title>23</title>
<path fill="none" stroke="#56c1d8" stroke-width="2" d="M394,-252C394,-252 329,-252 329,-252 323,-252 317,-246 317,-240 317,-240 317,-228 317,-228 317,-222 323,-216 329,-216 329,-216 394,-216 394,-216 400,-216 406,-222 406,-228 406,-228 406,-240 406,-240 406,-246 400,-252 394,-252"/>
<text text-anchor="middle" x="361.5" y="-231.5" font-family="sans" font-size="10.00">sort_splitbams</text>
</g>
<!-- 23&#45;&gt;0 -->
<g id="edge10" class="edge">
<title>23&#45;&gt;0</title>
<path fill="none" stroke="grey" stroke-width="2" d="M389.72,-215.94C402.34,-206.85 416.22,-194.53 424.5,-180 448.42,-138.05 445.17,-119.51 436.5,-72 434.89,-63.2 431.9,-53.95 428.71,-45.7"/>
<polygon fill="grey" stroke="grey" stroke-width="2" points="431.85,-44.12 424.81,-36.21 425.38,-46.79 431.85,-44.12"/>
</g>
<!-- 25 -->
<g id="node26" class="node">
<title>25</title>
<path fill="none" stroke="#5692d8" stroke-width="2" d="M300,-108C300,-108 227,-108 227,-108 221,-108 215,-102 215,-96 215,-96 215,-84 215,-84 215,-78 221,-72 227,-72 227,-72 300,-72 300,-72 306,-72 312,-78 312,-84 312,-84 312,-96 312,-96 312,-102 306,-108 300,-108"/>
<text text-anchor="middle" x="263.5" y="-87.5" font-family="sans" font-size="10.00">splitbam_counts</text>
</g>
<!-- 23&#45;&gt;25 -->
<g id="edge35" class="edge">
<title>23&#45;&gt;25</title>
<path fill="none" stroke="grey" stroke-width="2" d="M335.52,-215.81C322.98,-206.45 308.51,-193.93 298.5,-180 285.01,-161.23 275.84,-136.55 270.28,-117.95"/>
<polygon fill="grey" stroke="grey" stroke-width="2" points="273.65,-116.98 267.56,-108.31 266.91,-118.88 273.65,-116.98"/>
</g>
<!-- 26 -->
<g id="node27" class="node">
<title>26</title>
<path fill="none" stroke="#5673d8" stroke-width="2" d="M403,-180C403,-180 320,-180 320,-180 314,-180 308,-174 308,-168 308,-168 308,-156 308,-156 308,-150 314,-144 320,-144 320,-144 403,-144 403,-144 409,-144 415,-150 415,-156 415,-156 415,-168 415,-168 415,-174 409,-180 403,-180"/>
<text text-anchor="middle" x="361.5" y="-159.5" font-family="sans" font-size="10.00">splitbams_merged</text>
</g>
<!-- 23&#45;&gt;26 -->
<g id="edge36" class="edge">
<title>23&#45;&gt;26</title>
<path fill="none" stroke="grey" stroke-width="2" d="M361.5,-215.7C361.5,-207.98 361.5,-198.71 361.5,-190.11"/>
<polygon fill="grey" stroke="grey" stroke-width="2" points="365,-190.1 361.5,-180.1 358,-190.1 365,-190.1"/>
</g>
<!-- 23&#45;&gt;30 -->
<g id="edge54" class="edge">
<title>23&#45;&gt;30</title>
<path fill="none" stroke="grey" stroke-width="2" d="M406.4,-224.59C421.37,-221.81 438.15,-218.74 453.5,-216 546.66,-199.38 655.84,-180.8 715.97,-170.65"/>
<polygon fill="grey" stroke="grey" stroke-width="2" points="716.63,-174.09 725.91,-168.98 715.46,-167.19 716.63,-174.09"/>
</g>
<!-- 24&#45;&gt;23 -->
<g id="edge32" class="edge">
<title>24&#45;&gt;23</title>
<path fill="none" stroke="grey" stroke-width="2" d="M366.02,-287.7C365.36,-279.98 364.56,-270.71 363.82,-262.11"/>
<polygon fill="grey" stroke="grey" stroke-width="2" points="367.31,-261.77 362.97,-252.1 360.33,-262.37 367.31,-261.77"/>
</g>
<!-- 25&#45;&gt;0 -->
<g id="edge2" class="edge">
<title>25&#45;&gt;0</title>
<path fill="none" stroke="grey" stroke-width="2" d="M300.93,-71.88C324.98,-60.87 356.08,-46.64 379.96,-35.72"/>
<polygon fill="grey" stroke="grey" stroke-width="2" points="381.42,-38.9 389.06,-31.56 378.51,-32.53 381.42,-38.9"/>
</g>
<!-- 26&#45;&gt;25 -->
<g id="edge34" class="edge">
<title>26&#45;&gt;25</title>
<path fill="none" stroke="grey" stroke-width="2" d="M337.53,-143.88C324.95,-134.89 309.37,-123.76 295.75,-114.03"/>
<polygon fill="grey" stroke="grey" stroke-width="2" points="297.74,-111.15 287.57,-108.19 293.67,-116.85 297.74,-111.15"/>
</g>
<!-- 27 -->
<g id="node28" class="node">
<title>27</title>
<path fill="none" stroke="#56d85b" stroke-width="2" d="M415,-108C415,-108 342,-108 342,-108 336,-108 330,-102 330,-96 330,-96 330,-84 330,-84 330,-78 336,-72 342,-72 342,-72 415,-72 415,-72 421,-72 427,-78 427,-84 427,-84 427,-96 427,-96 427,-102 421,-108 415,-108"/>
<text text-anchor="middle" x="378.5" y="-87.5" font-family="sans" font-size="10.00">index_splitbams</text>
</g>
<!-- 26&#45;&gt;27 -->
<g id="edge37" class="edge">
<title>26&#45;&gt;27</title>
<path fill="none" stroke="grey" stroke-width="2" d="M365.7,-143.7C367.6,-135.9 369.88,-126.51 371.98,-117.83"/>
<polygon fill="grey" stroke="grey" stroke-width="2" points="375.39,-118.65 374.35,-108.1 368.58,-117 375.39,-118.65"/>
</g>
<!-- 27&#45;&gt;0 -->
<g id="edge9" class="edge">
<title>27&#45;&gt;0</title>
<path fill="none" stroke="grey" stroke-width="2" d="M387.89,-71.7C392.26,-63.64 397.56,-53.89 402.4,-44.98"/>
<polygon fill="grey" stroke="grey" stroke-width="2" points="405.52,-46.56 407.21,-36.1 399.37,-43.22 405.52,-46.56"/>
</g>
<!-- 28 -->
<g id="node29" class="node">
<title>28</title>
<path fill="none" stroke="#56d8a9" stroke-width="2" d="M663,-108C663,-108 594,-108 594,-108 588,-108 582,-102 582,-96 582,-96 582,-84 582,-84 582,-78 588,-72 594,-72 594,-72 663,-72 663,-72 669,-72 675,-78 675,-84 675,-84 675,-96 675,-96 675,-102 669,-108 663,-108"/>
<text text-anchor="middle" x="628.5" y="-87.5" font-family="sans" font-size="10.00">pipeline_counts</text>
</g>
<!-- 28&#45;&gt;0 -->
<g id="edge7" class="edge">
<title>28&#45;&gt;0</title>
<path fill="none" stroke="grey" stroke-width="2" d="M581.98,-73.64C543.2,-60.84 488.74,-42.85 453.04,-31.07"/>
<polygon fill="grey" stroke="grey" stroke-width="2" points="454.09,-27.73 443.5,-27.92 451.9,-34.37 454.09,-27.73"/>
</g>
<!-- 29&#45;&gt;28 -->
<g id="edge39" class="edge">
<title>29&#45;&gt;28</title>
<path fill="none" stroke="grey" stroke-width="2" d="M610.5,-719.95C610.5,-693.29 610.5,-640.11 610.5,-595 610.5,-595 610.5,-595 610.5,-521 610.5,-368.83 621.89,-186.63 626.55,-118.49"/>
<polygon fill="grey" stroke="grey" stroke-width="2" points="630.06,-118.41 627.26,-108.19 623.08,-117.93 630.06,-118.41"/>
</g>
<!-- 30&#45;&gt;28 -->
<g id="edge38" class="edge">
<title>30&#45;&gt;28</title>
<path fill="none" stroke="grey" stroke-width="2" d="M728.96,-143.88C711.25,-134.55 689.15,-122.92 670.18,-112.94"/>
<polygon fill="grey" stroke="grey" stroke-width="2" points="671.64,-109.75 661.16,-108.19 668.38,-115.94 671.64,-109.75"/>
</g>
</g>
</svg>
