<?xml version="1.0" encoding="UTF-8" standalone="no"?>
<!DOCTYPE svg PUBLIC "-//W3C//DTD SVG 1.1//EN"
 "http://www.w3.org/Graphics/SVG/1.1/DTD/svg11.dtd">
<!-- Generated by graphviz version 2.44.0 (0)
 -->
<!-- Title: snakemake_dag Pages: 1 -->
<svg width="1220pt" height="1124pt"
 viewBox="0.00 0.00 1220.00 1124.00" xmlns="http://www.w3.org/2000/svg" xmlns:xlink="http://www.w3.org/1999/xlink">
<g id="graph0" class="graph" transform="scale(1 1) rotate(0) translate(4 1120)">
<title>snakemake_dag</title>
<polygon fill="white" stroke="transparent" points="-4,4 -4,-1120 1216,-1120 1216,4 -4,4"/>
<!-- 0 -->
<g id="node1" class="node">
<title>0</title>
<path fill="none" stroke="#d86656" stroke-width="2" d="M661.5,-36C661.5,-36 631.5,-36 631.5,-36 625.5,-36 619.5,-30 619.5,-24 619.5,-24 619.5,-12 619.5,-12 619.5,-6 625.5,0 631.5,0 631.5,0 661.5,0 661.5,0 667.5,0 673.5,-6 673.5,-12 673.5,-12 673.5,-24 673.5,-24 673.5,-30 667.5,-36 661.5,-36"/>
<text text-anchor="middle" x="646.5" y="-15.5" font-family="sans" font-size="10.00">all</text>
</g>
<!-- 1 -->
<g id="node2" class="node">
<title>1</title>
<path fill="none" stroke="#56d892" stroke-width="2" d="M1073,-324C1073,-324 1014,-324 1014,-324 1008,-324 1002,-318 1002,-312 1002,-312 1002,-300 1002,-300 1002,-294 1008,-288 1014,-288 1014,-288 1073,-288 1073,-288 1079,-288 1085,-294 1085,-300 1085,-300 1085,-312 1085,-312 1085,-318 1079,-324 1073,-324"/>
<text text-anchor="middle" x="1043.5" y="-303.5" font-family="sans" font-size="10.00">merge_beads</text>
</g>
<!-- 1&#45;&gt;0 -->
<g id="edge4" class="edge">
<title>1&#45;&gt;0</title>
<path fill="none" stroke="grey" stroke-width="2" d="M1083.68,-287.77C1098.33,-279.28 1113.3,-267.48 1121.5,-252 1128.99,-237.86 1129.47,-229.87 1121.5,-216 1029.98,-56.7 778.66,-26.21 683.59,-20.38"/>
<polygon fill="grey" stroke="grey" stroke-width="2" points="683.76,-16.88 673.58,-19.82 683.37,-23.87 683.76,-16.88"/>
</g>
<!-- 25 -->
<g id="node26" class="node">
<title>25</title>
<path fill="none" stroke="#56d0d8" stroke-width="2" d="M574,-252C574,-252 505,-252 505,-252 499,-252 493,-246 493,-240 493,-240 493,-228 493,-228 493,-222 499,-216 505,-216 505,-216 574,-216 574,-216 580,-216 586,-222 586,-228 586,-228 586,-240 586,-240 586,-246 580,-252 574,-252"/>
<text text-anchor="middle" x="539.5" y="-231.5" font-family="sans" font-size="10.00">pipeline_counts</text>
</g>
<!-- 1&#45;&gt;25 -->
<g id="edge43" class="edge">
<title>1&#45;&gt;25</title>
<path fill="none" stroke="grey" stroke-width="2" d="M1001.75,-299.34C976.98,-296 944.96,-291.71 916.5,-288 790.78,-271.59 758.82,-271.29 633.5,-252 621.46,-250.15 608.6,-247.96 596.37,-245.78"/>
<polygon fill="grey" stroke="grey" stroke-width="2" points="596.74,-242.29 586.28,-243.96 595.5,-249.18 596.74,-242.29"/>
</g>
<!-- 2 -->
<g id="node3" class="node">
<title>2</title>
<path fill="none" stroke="#9fd856" stroke-width="2" d="M717,-540C717,-540 658,-540 658,-540 652,-540 646,-534 646,-528 646,-528 646,-516 646,-516 646,-510 652,-504 658,-504 658,-504 717,-504 717,-504 723,-504 729,-510 729,-516 729,-516 729,-528 729,-528 729,-534 723,-540 717,-540"/>
<text text-anchor="middle" x="687.5" y="-519.5" font-family="sans" font-size="10.00">fastq_to_bam</text>
</g>
<!-- 2&#45;&gt;1 -->
<g id="edge15" class="edge">
<title>2&#45;&gt;1</title>
<path fill="none" stroke="grey" stroke-width="2" d="M716.03,-503.85C779.96,-465.42 934.64,-372.44 1006.13,-329.46"/>
<polygon fill="grey" stroke="grey" stroke-width="2" points="1008.07,-332.38 1014.83,-324.23 1004.46,-326.38 1008.07,-332.38"/>
</g>
<!-- 18 -->
<g id="node19" class="node">
<title>18</title>
<path fill="none" stroke="#56d882" stroke-width="2" d="M683,-468C683,-468 620,-468 620,-468 614,-468 608,-462 608,-456 608,-456 608,-444 608,-444 608,-438 614,-432 620,-432 620,-432 683,-432 683,-432 689,-432 695,-438 695,-444 695,-444 695,-456 695,-456 695,-462 689,-468 683,-468"/>
<text text-anchor="middle" x="651.5" y="-447.5" font-family="sans" font-size="10.00">make_clusters</text>
</g>
<!-- 2&#45;&gt;18 -->
<g id="edge33" class="edge">
<title>2&#45;&gt;18</title>
<path fill="none" stroke="grey" stroke-width="2" d="M678.6,-503.7C674.5,-495.73 669.55,-486.1 665.01,-477.26"/>
<polygon fill="grey" stroke="grey" stroke-width="2" points="667.98,-475.4 660.3,-468.1 661.76,-478.6 667.98,-475.4"/>
</g>
<!-- 2&#45;&gt;25 -->
<g id="edge55" class="edge">
<title>2&#45;&gt;25</title>
<path fill="none" stroke="grey" stroke-width="2" d="M695.24,-503.99C702.4,-485.88 710.92,-456.49 703.5,-432 697.93,-413.6 689.63,-412.35 679.5,-396 650.36,-348.95 655.13,-328.59 617.5,-288 606.74,-276.39 592.98,-265.99 580.02,-257.54"/>
<polygon fill="grey" stroke="grey" stroke-width="2" points="581.56,-254.37 571.23,-252.01 577.83,-260.3 581.56,-254.37"/>
</g>
<!-- 3 -->
<g id="node4" class="node">
<title>3</title>
<path fill="none" stroke="#bed856" stroke-width="2" d="M647,-612C647,-612 582,-612 582,-612 576,-612 570,-606 570,-600 570,-600 570,-588 570,-588 570,-582 576,-576 582,-576 582,-576 647,-576 647,-576 653,-576 659,-582 659,-588 659,-588 659,-600 659,-600 659,-606 653,-612 647,-612"/>
<text text-anchor="middle" x="614.5" y="-591.5" font-family="sans" font-size="10.00">cutadapt_oligo</text>
</g>
<!-- 3&#45;&gt;2 -->
<g id="edge16" class="edge">
<title>3&#45;&gt;2</title>
<path fill="none" stroke="grey" stroke-width="2" d="M632.54,-575.7C641.56,-567.05 652.62,-556.45 662.44,-547.03"/>
<polygon fill="grey" stroke="grey" stroke-width="2" points="664.87,-549.55 669.66,-540.1 660.02,-544.5 664.87,-549.55"/>
</g>
<!-- 3&#45;&gt;25 -->
<g id="edge41" class="edge">
<title>3&#45;&gt;25</title>
<path fill="none" stroke="grey" stroke-width="2" d="M607.42,-575.85C597.19,-549.49 579.5,-497.21 579.5,-451 579.5,-451 579.5,-451 579.5,-377 579.5,-335.48 563.46,-289.61 551.7,-261.54"/>
<polygon fill="grey" stroke="grey" stroke-width="2" points="554.77,-259.84 547.59,-252.05 548.35,-262.62 554.77,-259.84"/>
</g>
<!-- 4 -->
<g id="node5" class="node">
<title>4</title>
<path fill="none" stroke="#56a2d8" stroke-width="2" d="M603.5,-828C603.5,-828 535.5,-828 535.5,-828 529.5,-828 523.5,-822 523.5,-816 523.5,-816 523.5,-804 523.5,-804 523.5,-798 529.5,-792 535.5,-792 535.5,-792 603.5,-792 603.5,-792 609.5,-792 615.5,-798 615.5,-804 615.5,-804 615.5,-816 615.5,-816 615.5,-822 609.5,-828 603.5,-828"/>
<text text-anchor="middle" x="569.5" y="-807.5" font-family="sans" font-size="10.00">split_bpm_dpm</text>
</g>
<!-- 4&#45;&gt;3 -->
<g id="edge17" class="edge">
<title>4&#45;&gt;3</title>
<path fill="none" stroke="grey" stroke-width="2" d="M573.11,-791.85C580.91,-754.75 599.4,-666.81 608.8,-622.1"/>
<polygon fill="grey" stroke="grey" stroke-width="2" points="612.24,-622.74 610.88,-612.23 605.39,-621.3 612.24,-622.74"/>
</g>
<!-- 13 -->
<g id="node14" class="node">
<title>13</title>
<path fill="none" stroke="#ced856" stroke-width="2" d="M501.5,-756C501.5,-756 439.5,-756 439.5,-756 433.5,-756 427.5,-750 427.5,-744 427.5,-744 427.5,-732 427.5,-732 427.5,-726 433.5,-720 439.5,-720 439.5,-720 501.5,-720 501.5,-720 507.5,-720 513.5,-726 513.5,-732 513.5,-732 513.5,-744 513.5,-744 513.5,-750 507.5,-756 501.5,-756"/>
<text text-anchor="middle" x="470.5" y="-735.5" font-family="sans" font-size="10.00">cutadapt_dpm</text>
</g>
<!-- 4&#45;&gt;13 -->
<g id="edge27" class="edge">
<title>4&#45;&gt;13</title>
<path fill="none" stroke="grey" stroke-width="2" d="M545.28,-791.88C532.58,-782.89 516.84,-771.76 503.08,-762.03"/>
<polygon fill="grey" stroke="grey" stroke-width="2" points="505,-759.11 494.81,-756.19 500.96,-764.82 505,-759.11"/>
</g>
<!-- 4&#45;&gt;25 -->
<g id="edge50" class="edge">
<title>4&#45;&gt;25</title>
<path fill="none" stroke="grey" stroke-width="2" d="M563.83,-791.73C555.65,-765.21 541.5,-712.73 541.5,-667 541.5,-667 541.5,-667 541.5,-377 541.5,-336.99 540.7,-290.65 540.11,-262.08"/>
<polygon fill="grey" stroke="grey" stroke-width="2" points="543.61,-261.97 539.9,-252.05 536.61,-262.12 543.61,-261.97"/>
</g>
<!-- 5 -->
<g id="node6" class="node">
<title>5</title>
<path fill="none" stroke="#d87556" stroke-width="2" d="M707.5,-900C707.5,-900 661.5,-900 661.5,-900 655.5,-900 649.5,-894 649.5,-888 649.5,-888 649.5,-876 649.5,-876 649.5,-870 655.5,-864 661.5,-864 661.5,-864 707.5,-864 707.5,-864 713.5,-864 719.5,-870 719.5,-876 719.5,-876 719.5,-888 719.5,-888 719.5,-894 713.5,-900 707.5,-900"/>
<text text-anchor="middle" x="684.5" y="-879.5" font-family="sans" font-size="10.00">barcode_id</text>
</g>
<!-- 5&#45;&gt;4 -->
<g id="edge18" class="edge">
<title>5&#45;&gt;4</title>
<path fill="none" stroke="grey" stroke-width="2" d="M656.37,-863.88C641.33,-854.72 622.63,-843.34 606.44,-833.48"/>
<polygon fill="grey" stroke="grey" stroke-width="2" points="608.1,-830.4 597.74,-828.19 604.46,-836.38 608.1,-830.4"/>
</g>
<!-- 23 -->
<g id="node24" class="node">
<title>23</title>
<path fill="none" stroke="#d88556" stroke-width="2" d="M1123,-828C1123,-828 970,-828 970,-828 964,-828 958,-822 958,-816 958,-816 958,-804 958,-804 958,-798 964,-792 970,-792 970,-792 1123,-792 1123,-792 1129,-792 1135,-798 1135,-804 1135,-804 1135,-816 1135,-816 1135,-822 1129,-828 1123,-828"/>
<text text-anchor="middle" x="1046.5" y="-807.5" font-family="sans" font-size="10.00">barcode_identification_efficiency</text>
</g>
<!-- 5&#45;&gt;23 -->
<g id="edge40" class="edge">
<title>5&#45;&gt;23</title>
<path fill="none" stroke="grey" stroke-width="2" d="M719.54,-874.22C771.93,-864.09 872.62,-844.62 948.48,-829.95"/>
<polygon fill="grey" stroke="grey" stroke-width="2" points="949.39,-833.34 958.55,-828.01 948.06,-826.47 949.39,-833.34"/>
</g>
<!-- 5&#45;&gt;25 -->
<g id="edge44" class="edge">
<title>5&#45;&gt;25</title>
<path fill="none" stroke="grey" stroke-width="2" d="M712.05,-863.82C746.07,-840.23 799.5,-794.36 799.5,-739 799.5,-739 799.5,-739 799.5,-521 799.5,-453.31 749.69,-452.56 712.5,-396 681.47,-348.8 687.23,-326.07 645.5,-288 631.14,-274.9 612.93,-264.24 595.68,-256.02"/>
<polygon fill="grey" stroke="grey" stroke-width="2" points="596.78,-252.67 586.23,-251.7 593.87,-259.04 596.78,-252.67"/>
</g>
<!-- 6 -->
<g id="node7" class="node">
<title>6</title>
<path fill="none" stroke="#d85656" stroke-width="2" d="M323.5,-972C323.5,-972 243.5,-972 243.5,-972 237.5,-972 231.5,-966 231.5,-960 231.5,-960 231.5,-948 231.5,-948 231.5,-942 237.5,-936 243.5,-936 243.5,-936 323.5,-936 323.5,-936 329.5,-936 335.5,-942 335.5,-948 335.5,-948 335.5,-960 335.5,-960 335.5,-966 329.5,-972 323.5,-972"/>
<text text-anchor="middle" x="283.5" y="-951.5" font-family="sans" font-size="10.00">adaptor_trimming</text>
</g>
<!-- 6&#45;&gt;5 -->
<g id="edge19" class="edge">
<title>6&#45;&gt;5</title>
<path fill="none" stroke="grey" stroke-width="2" d="M335.51,-943.92C414.75,-930.09 564.38,-903.97 639.33,-890.89"/>
<polygon fill="grey" stroke="grey" stroke-width="2" points="640.14,-894.3 649.39,-889.13 638.94,-887.4 640.14,-894.3"/>
</g>
<!-- 6&#45;&gt;25 -->
<g id="edge46" class="edge">
<title>6&#45;&gt;25</title>
<path fill="none" stroke="grey" stroke-width="2" d="M283.5,-935.95C283.5,-909.29 283.5,-856.11 283.5,-811 283.5,-811 283.5,-811 283.5,-665 283.5,-624.55 278.12,-608.27 302.5,-576 323.12,-548.72 349.88,-567.28 370.5,-540 394.88,-507.73 389.5,-491.45 389.5,-451 389.5,-451 389.5,-451 389.5,-377 389.5,-333.81 398.46,-319.03 428.5,-288 443.56,-272.44 464.11,-260.89 483.43,-252.62"/>
<polygon fill="grey" stroke="grey" stroke-width="2" points="484.84,-255.82 492.79,-248.82 482.21,-249.34 484.84,-255.82"/>
</g>
<!-- 7 -->
<g id="node8" class="node">
<title>7</title>
<path fill="none" stroke="#d8d356" stroke-width="2" d="M250.5,-1044C250.5,-1044 180.5,-1044 180.5,-1044 174.5,-1044 168.5,-1038 168.5,-1032 168.5,-1032 168.5,-1020 168.5,-1020 168.5,-1014 174.5,-1008 180.5,-1008 180.5,-1008 250.5,-1008 250.5,-1008 256.5,-1008 262.5,-1014 262.5,-1020 262.5,-1020 262.5,-1032 262.5,-1032 262.5,-1038 256.5,-1044 250.5,-1044"/>
<text text-anchor="middle" x="215.5" y="-1023.5" font-family="sans" font-size="10.00">compress_fastq</text>
</g>
<!-- 7&#45;&gt;6 -->
<g id="edge20" class="edge">
<title>7&#45;&gt;6</title>
<path fill="none" stroke="grey" stroke-width="2" d="M232.31,-1007.7C240.63,-999.14 250.81,-988.66 259.89,-979.3"/>
<polygon fill="grey" stroke="grey" stroke-width="2" points="262.43,-981.72 266.88,-972.1 257.41,-976.84 262.43,-981.72"/>
</g>
<!-- 7&#45;&gt;25 -->
<g id="edge52" class="edge">
<title>7&#45;&gt;25</title>
<path fill="none" stroke="grey" stroke-width="2" d="M201.08,-1007.89C181.12,-982.42 147.5,-932.2 147.5,-883 147.5,-883 147.5,-883 147.5,-665 147.5,-624.55 151.28,-613.48 166.5,-576 223.38,-435.93 226.2,-378.23 347.5,-288 386.89,-258.7 441.64,-245.6 482.6,-239.74"/>
<polygon fill="grey" stroke="grey" stroke-width="2" points="483.24,-243.18 492.7,-238.4 482.32,-236.25 483.24,-243.18"/>
</g>
<!-- 8 -->
<g id="node9" class="node">
<title>8</title>
<path fill="none" stroke="#5692d8" stroke-width="2" d="M237.5,-1116C237.5,-1116 193.5,-1116 193.5,-1116 187.5,-1116 181.5,-1110 181.5,-1104 181.5,-1104 181.5,-1092 181.5,-1092 181.5,-1086 187.5,-1080 193.5,-1080 193.5,-1080 237.5,-1080 237.5,-1080 243.5,-1080 249.5,-1086 249.5,-1092 249.5,-1092 249.5,-1104 249.5,-1104 249.5,-1110 243.5,-1116 237.5,-1116"/>
<text text-anchor="middle" x="215.5" y="-1095.5" font-family="sans" font-size="10.00">split_fastq</text>
</g>
<!-- 8&#45;&gt;7 -->
<g id="edge21" class="edge">
<title>8&#45;&gt;7</title>
<path fill="none" stroke="grey" stroke-width="2" d="M215.5,-1079.7C215.5,-1071.98 215.5,-1062.71 215.5,-1054.11"/>
<polygon fill="grey" stroke="grey" stroke-width="2" points="219,-1054.1 215.5,-1044.1 212,-1054.1 219,-1054.1"/>
</g>
<!-- 9 -->
<g id="node10" class="node">
<title>9</title>
<path fill="none" stroke="#56d8b1" stroke-width="2" d="M221,-396C221,-396 174,-396 174,-396 168,-396 162,-390 162,-384 162,-384 162,-372 162,-372 162,-366 168,-360 174,-360 174,-360 221,-360 221,-360 227,-360 233,-366 233,-372 233,-372 233,-384 233,-384 233,-390 227,-396 221,-396"/>
<text text-anchor="middle" x="197.5" y="-375.5" font-family="sans" font-size="10.00">merge_dna</text>
</g>
<!-- 9&#45;&gt;0 -->
<g id="edge12" class="edge">
<title>9&#45;&gt;0</title>
<path fill="none" stroke="grey" stroke-width="2" d="M161.85,-366.67C141.17,-358.64 116.82,-345.21 104.5,-324 48.11,-226.97 41.28,-151.49 120.5,-72 154.94,-37.44 494.99,-23.73 609.26,-20.07"/>
<polygon fill="grey" stroke="grey" stroke-width="2" points="609.4,-23.57 619.29,-19.76 609.18,-16.57 609.4,-23.57"/>
</g>
<!-- 9&#45;&gt;25 -->
<g id="edge53" class="edge">
<title>9&#45;&gt;25</title>
<path fill="none" stroke="grey" stroke-width="2" d="M216.18,-359.77C242.92,-335.25 289.96,-292.7 299.5,-288 372.29,-252.12 399.58,-270.91 478.5,-252 479.97,-251.65 481.46,-251.28 482.96,-250.91"/>
<polygon fill="grey" stroke="grey" stroke-width="2" points="484.15,-254.22 492.96,-248.35 482.41,-247.44 484.15,-254.22"/>
</g>
<!-- 26 -->
<g id="node27" class="node">
<title>26</title>
<path fill="none" stroke="#5673d8" stroke-width="2" d="M235,-324C235,-324 126,-324 126,-324 120,-324 114,-318 114,-312 114,-312 114,-300 114,-300 114,-294 120,-288 126,-288 126,-288 235,-288 235,-288 241,-288 247,-294 247,-300 247,-300 247,-312 247,-312 247,-318 241,-324 235,-324"/>
<text text-anchor="middle" x="180.5" y="-303.5" font-family="sans" font-size="10.00">threshold_tag_and_split</text>
</g>
<!-- 9&#45;&gt;26 -->
<g id="edge57" class="edge">
<title>9&#45;&gt;26</title>
<path fill="none" stroke="grey" stroke-width="2" d="M193.3,-359.7C191.4,-351.9 189.12,-342.51 187.02,-333.83"/>
<polygon fill="grey" stroke="grey" stroke-width="2" points="190.42,-333 184.65,-324.1 183.61,-334.65 190.42,-333"/>
</g>
<!-- 10 -->
<g id="node11" class="node">
<title>10</title>
<path fill="none" stroke="#56b1d8" stroke-width="2" d="M349.5,-540C349.5,-540 293.5,-540 293.5,-540 287.5,-540 281.5,-534 281.5,-528 281.5,-528 281.5,-516 281.5,-516 281.5,-510 287.5,-504 293.5,-504 293.5,-504 349.5,-504 349.5,-504 355.5,-504 361.5,-510 361.5,-516 361.5,-516 361.5,-528 361.5,-528 361.5,-534 355.5,-540 349.5,-540"/>
<text text-anchor="middle" x="321.5" y="-519.5" font-family="sans" font-size="10.00">repeat_mask</text>
</g>
<!-- 10&#45;&gt;9 -->
<g id="edge22" class="edge">
<title>10&#45;&gt;9</title>
<path fill="none" stroke="grey" stroke-width="2" d="M306.54,-503.87C284.76,-478.92 244.17,-432.45 219.13,-403.77"/>
<polygon fill="grey" stroke="grey" stroke-width="2" points="221.72,-401.42 212.51,-396.19 216.45,-406.02 221.72,-401.42"/>
</g>
<!-- 10&#45;&gt;18 -->
<g id="edge32" class="edge">
<title>10&#45;&gt;18</title>
<path fill="none" stroke="grey" stroke-width="2" d="M361.63,-512.49C420.94,-499.91 532.08,-476.33 598.17,-462.31"/>
<polygon fill="grey" stroke="grey" stroke-width="2" points="598.93,-465.73 607.98,-460.23 597.48,-458.88 598.93,-465.73"/>
</g>
<!-- 10&#45;&gt;25 -->
<g id="edge51" class="edge">
<title>10&#45;&gt;25</title>
<path fill="none" stroke="grey" stroke-width="2" d="M320.19,-503.79C317.93,-461.3 318.2,-350.38 375.5,-288 379.37,-283.78 437.28,-265.65 483.2,-251.76"/>
<polygon fill="grey" stroke="grey" stroke-width="2" points="484.23,-255.1 492.79,-248.86 482.2,-248.4 484.23,-255.1"/>
</g>
<!-- 11 -->
<g id="node12" class="node">
<title>11</title>
<path fill="none" stroke="#56c1d8" stroke-width="2" d="M425,-612C425,-612 324,-612 324,-612 318,-612 312,-606 312,-600 312,-600 312,-588 312,-588 312,-582 318,-576 324,-576 324,-576 425,-576 425,-576 431,-576 437,-582 437,-588 437,-588 437,-600 437,-600 437,-606 431,-612 425,-612"/>
<text text-anchor="middle" x="374.5" y="-591.5" font-family="sans" font-size="10.00">rename_and_filter_chr</text>
</g>
<!-- 11&#45;&gt;10 -->
<g id="edge23" class="edge">
<title>11&#45;&gt;10</title>
<path fill="none" stroke="grey" stroke-width="2" d="M361.4,-575.7C355.11,-567.39 347.45,-557.28 340.54,-548.14"/>
<polygon fill="grey" stroke="grey" stroke-width="2" points="343.28,-545.96 334.45,-540.1 337.7,-550.19 343.28,-545.96"/>
</g>
<!-- 11&#45;&gt;25 -->
<g id="edge49" class="edge">
<title>11&#45;&gt;25</title>
<path fill="none" stroke="grey" stroke-width="2" d="M385.48,-575.84C401.01,-549.89 427.5,-498.63 427.5,-451 427.5,-451 427.5,-451 427.5,-377 427.5,-336.03 426.84,-320.71 451.5,-288 461.1,-275.27 474.73,-264.96 488.4,-256.94"/>
<polygon fill="grey" stroke="grey" stroke-width="2" points="490.29,-259.9 497.35,-252 486.91,-253.77 490.29,-259.9"/>
</g>
<!-- 12 -->
<g id="node13" class="node">
<title>12</title>
<path fill="none" stroke="#d89556" stroke-width="2" d="M463,-684C463,-684 402,-684 402,-684 396,-684 390,-678 390,-672 390,-672 390,-660 390,-660 390,-654 396,-648 402,-648 402,-648 463,-648 463,-648 469,-648 475,-654 475,-660 475,-660 475,-672 475,-672 475,-678 469,-684 463,-684"/>
<text text-anchor="middle" x="432.5" y="-663.5" font-family="sans" font-size="10.00">bowtie2_align</text>
</g>
<!-- 12&#45;&gt;11 -->
<g id="edge25" class="edge">
<title>12&#45;&gt;11</title>
<path fill="none" stroke="grey" stroke-width="2" d="M418.16,-647.7C411.21,-639.3 402.73,-629.07 395.1,-619.86"/>
<polygon fill="grey" stroke="grey" stroke-width="2" points="397.75,-617.57 388.67,-612.1 392.36,-622.04 397.75,-617.57"/>
</g>
<!-- 12&#45;&gt;25 -->
<g id="edge54" class="edge">
<title>12&#45;&gt;25</title>
<path fill="none" stroke="grey" stroke-width="2" d="M439.18,-647.81C448.82,-621.4 465.5,-569.06 465.5,-523 465.5,-523 465.5,-523 465.5,-377 465.5,-336.03 469.51,-323.76 489.5,-288 495.31,-277.6 503.62,-267.68 511.79,-259.3"/>
<polygon fill="grey" stroke="grey" stroke-width="2" points="514.49,-261.55 519.18,-252.06 509.59,-256.55 514.49,-261.55"/>
</g>
<!-- 13&#45;&gt;12 -->
<g id="edge26" class="edge">
<title>13&#45;&gt;12</title>
<path fill="none" stroke="grey" stroke-width="2" d="M461.11,-719.7C456.74,-711.64 451.44,-701.89 446.6,-692.98"/>
<polygon fill="grey" stroke="grey" stroke-width="2" points="449.63,-691.22 441.79,-684.1 443.48,-694.56 449.63,-691.22"/>
</g>
<!-- 13&#45;&gt;25 -->
<g id="edge42" class="edge">
<title>13&#45;&gt;25</title>
<path fill="none" stroke="grey" stroke-width="2" d="M477.18,-719.81C486.82,-693.4 503.5,-641.06 503.5,-595 503.5,-595 503.5,-595 503.5,-377 503.5,-335.78 517.93,-289.83 528.52,-261.66"/>
<polygon fill="grey" stroke="grey" stroke-width="2" points="531.86,-262.72 532.21,-252.13 525.34,-260.19 531.86,-262.72"/>
</g>
<!-- 14 -->
<g id="node15" class="node">
<title>14</title>
<path fill="none" stroke="#56d8c1" stroke-width="2" d="M243.5,-612C243.5,-612 187.5,-612 187.5,-612 181.5,-612 175.5,-606 175.5,-600 175.5,-600 175.5,-588 175.5,-588 175.5,-582 181.5,-576 187.5,-576 187.5,-576 243.5,-576 243.5,-576 249.5,-576 255.5,-582 255.5,-588 255.5,-588 255.5,-600 255.5,-600 255.5,-606 249.5,-612 243.5,-612"/>
<text text-anchor="middle" x="215.5" y="-591.5" font-family="sans" font-size="10.00">merge_mask</text>
</g>
<!-- 14&#45;&gt;10 -->
<g id="edge24" class="edge">
<title>14&#45;&gt;10</title>
<path fill="none" stroke="grey" stroke-width="2" d="M241.43,-575.88C255.16,-566.81 272.21,-555.55 287.04,-545.76"/>
<polygon fill="grey" stroke="grey" stroke-width="2" points="289.05,-548.62 295.47,-540.19 285.2,-542.78 289.05,-548.62"/>
</g>
<!-- 31 -->
<g id="node32" class="node">
<title>31</title>
<path fill="none" stroke="#afd856" stroke-width="2" d="M117,-468C117,-468 12,-468 12,-468 6,-468 0,-462 0,-456 0,-456 0,-444 0,-444 0,-438 6,-432 12,-432 12,-432 117,-432 117,-432 123,-432 129,-438 129,-444 129,-444 129,-456 129,-456 129,-462 123,-468 117,-468"/>
<text text-anchor="middle" x="64.5" y="-447.5" font-family="sans" font-size="10.00">effective_genome_size</text>
</g>
<!-- 14&#45;&gt;31 -->
<g id="edge67" class="edge">
<title>14&#45;&gt;31</title>
<path fill="none" stroke="grey" stroke-width="2" d="M197.29,-575.87C170.53,-550.71 120.49,-503.65 90.07,-475.04"/>
<polygon fill="grey" stroke="grey" stroke-width="2" points="92.46,-472.49 82.78,-468.19 87.67,-477.59 92.46,-472.49"/>
</g>
<!-- 15 -->
<g id="node16" class="node">
<title>15</title>
<path fill="none" stroke="#59d856" stroke-width="2" d="M748.5,-252C748.5,-252 654.5,-252 654.5,-252 648.5,-252 642.5,-246 642.5,-240 642.5,-240 642.5,-228 642.5,-228 642.5,-222 648.5,-216 654.5,-216 654.5,-216 748.5,-216 748.5,-216 754.5,-216 760.5,-222 760.5,-228 760.5,-228 760.5,-240 760.5,-240 760.5,-246 754.5,-252 748.5,-252"/>
<text text-anchor="middle" x="701.5" y="-231.5" font-family="sans" font-size="10.00">get_size_distribution</text>
</g>
<!-- 15&#45;&gt;0 -->
<g id="edge7" class="edge">
<title>15&#45;&gt;0</title>
<path fill="none" stroke="grey" stroke-width="2" d="M697.09,-215.85C687.56,-178.75 664.96,-90.81 653.47,-46.1"/>
<polygon fill="grey" stroke="grey" stroke-width="2" points="656.81,-45.05 650.93,-36.23 650.03,-46.79 656.81,-45.05"/>
</g>
<!-- 16 -->
<g id="node17" class="node">
<title>16</title>
<path fill="none" stroke="#d8c356" stroke-width="2" d="M895.5,-324C895.5,-324 847.5,-324 847.5,-324 841.5,-324 835.5,-318 835.5,-312 835.5,-312 835.5,-300 835.5,-300 835.5,-294 841.5,-288 847.5,-288 847.5,-288 895.5,-288 895.5,-288 901.5,-288 907.5,-294 907.5,-300 907.5,-300 907.5,-312 907.5,-312 907.5,-318 901.5,-324 895.5,-324"/>
<text text-anchor="middle" x="871.5" y="-303.5" font-family="sans" font-size="10.00">clusters_all</text>
</g>
<!-- 16&#45;&gt;0 -->
<g id="edge2" class="edge">
<title>16&#45;&gt;0</title>
<path fill="none" stroke="grey" stroke-width="2" d="M843.11,-287.87C830.35,-278.76 816.23,-266.45 807.5,-252 765.21,-182.02 821.29,-135.27 769.5,-72 748.05,-45.8 711.21,-32.26 683.42,-25.45"/>
<polygon fill="grey" stroke="grey" stroke-width="2" points="684.16,-22.03 673.64,-23.24 682.62,-28.86 684.16,-22.03"/>
</g>
<!-- 16&#45;&gt;15 -->
<g id="edge28" class="edge">
<title>16&#45;&gt;15</title>
<path fill="none" stroke="grey" stroke-width="2" d="M835.45,-290.15C811.32,-280.22 779.2,-266.99 752.46,-255.99"/>
<polygon fill="grey" stroke="grey" stroke-width="2" points="753.46,-252.61 742.88,-252.04 750.8,-259.08 753.46,-252.61"/>
</g>
<!-- 19 -->
<g id="node20" class="node">
<title>19</title>
<path fill="none" stroke="#88d856" stroke-width="2" d="M934.5,-252C934.5,-252 828.5,-252 828.5,-252 822.5,-252 816.5,-246 816.5,-240 816.5,-240 816.5,-228 816.5,-228 816.5,-222 822.5,-216 828.5,-216 828.5,-216 934.5,-216 934.5,-216 940.5,-216 946.5,-222 946.5,-228 946.5,-228 946.5,-240 946.5,-240 946.5,-246 940.5,-252 934.5,-252"/>
<text text-anchor="middle" x="881.5" y="-231.5" font-family="sans" font-size="10.00">generate_cluster_ecdfs</text>
</g>
<!-- 16&#45;&gt;19 -->
<g id="edge34" class="edge">
<title>16&#45;&gt;19</title>
<path fill="none" stroke="grey" stroke-width="2" d="M873.97,-287.7C875.07,-279.98 876.4,-270.71 877.63,-262.11"/>
<polygon fill="grey" stroke="grey" stroke-width="2" points="881.11,-262.5 879.06,-252.1 874.18,-261.51 881.11,-262.5"/>
</g>
<!-- 20 -->
<g id="node21" class="node">
<title>20</title>
<path fill="none" stroke="#78d856" stroke-width="2" d="M1100.5,-252C1100.5,-252 976.5,-252 976.5,-252 970.5,-252 964.5,-246 964.5,-240 964.5,-240 964.5,-228 964.5,-228 964.5,-222 970.5,-216 976.5,-216 976.5,-216 1100.5,-216 1100.5,-216 1106.5,-216 1112.5,-222 1112.5,-228 1112.5,-228 1112.5,-240 1112.5,-240 1112.5,-246 1106.5,-252 1100.5,-252"/>
<text text-anchor="middle" x="1038.5" y="-231.5" font-family="sans" font-size="10.00">generate_cluster_statistics</text>
</g>
<!-- 16&#45;&gt;20 -->
<g id="edge36" class="edge">
<title>16&#45;&gt;20</title>
<path fill="none" stroke="grey" stroke-width="2" d="M907.74,-289.81C931.4,-279.89 962.62,-266.81 988.62,-255.91"/>
<polygon fill="grey" stroke="grey" stroke-width="2" points="990.07,-259.1 997.94,-252 987.36,-252.64 990.07,-259.1"/>
</g>
<!-- 17 -->
<g id="node18" class="node">
<title>17</title>
<path fill="none" stroke="#56d8a2" stroke-width="2" d="M801.5,-396C801.5,-396 733.5,-396 733.5,-396 727.5,-396 721.5,-390 721.5,-384 721.5,-384 721.5,-372 721.5,-372 721.5,-366 727.5,-360 733.5,-360 733.5,-360 801.5,-360 801.5,-360 807.5,-360 813.5,-366 813.5,-372 813.5,-372 813.5,-384 813.5,-384 813.5,-390 807.5,-396 801.5,-396"/>
<text text-anchor="middle" x="767.5" y="-375.5" font-family="sans" font-size="10.00">merge_clusters</text>
</g>
<!-- 17&#45;&gt;15 -->
<g id="edge29" class="edge">
<title>17&#45;&gt;15</title>
<path fill="none" stroke="grey" stroke-width="2" d="M776.82,-359.88C785.66,-341.15 795.88,-310.75 783.5,-288 776.59,-275.3 765.18,-265.18 753.04,-257.33"/>
<polygon fill="grey" stroke="grey" stroke-width="2" points="754.5,-254.13 744.12,-252.01 750.91,-260.14 754.5,-254.13"/>
</g>
<!-- 17&#45;&gt;16 -->
<g id="edge30" class="edge">
<title>17&#45;&gt;16</title>
<path fill="none" stroke="grey" stroke-width="2" d="M792.94,-359.88C806.29,-350.89 822.82,-339.76 837.28,-330.03"/>
<polygon fill="grey" stroke="grey" stroke-width="2" points="839.62,-332.68 845.96,-324.19 835.71,-326.87 839.62,-332.68"/>
</g>
<!-- 17&#45;&gt;19 -->
<g id="edge35" class="edge">
<title>17&#45;&gt;19</title>
<path fill="none" stroke="grey" stroke-width="2" d="M813.54,-363.54C854.96,-350.97 910.25,-332.86 916.5,-324 930.2,-304.59 917.65,-279.07 903.91,-260.34"/>
<polygon fill="grey" stroke="grey" stroke-width="2" points="906.52,-257.99 897.61,-252.26 901,-262.3 906.52,-257.99"/>
</g>
<!-- 17&#45;&gt;20 -->
<g id="edge37" class="edge">
<title>17&#45;&gt;20</title>
<path fill="none" stroke="grey" stroke-width="2" d="M813.87,-363.21C859.16,-349.59 922.78,-329.94 933.5,-324 964.82,-306.64 995.45,-279.11 1015.47,-259.26"/>
<polygon fill="grey" stroke="grey" stroke-width="2" points="1018.05,-261.63 1022.6,-252.07 1013.07,-256.7 1018.05,-261.63"/>
</g>
<!-- 21 -->
<g id="node22" class="node">
<title>21</title>
<path fill="none" stroke="#56d8d0" stroke-width="2" d="M626.5,-180C626.5,-180 596.5,-180 596.5,-180 590.5,-180 584.5,-174 584.5,-168 584.5,-168 584.5,-156 584.5,-156 584.5,-150 590.5,-144 596.5,-144 596.5,-144 626.5,-144 626.5,-144 632.5,-144 638.5,-150 638.5,-156 638.5,-156 638.5,-168 638.5,-168 638.5,-174 632.5,-180 626.5,-180"/>
<text text-anchor="middle" x="611.5" y="-159.5" font-family="sans" font-size="10.00">multiqc</text>
</g>
<!-- 17&#45;&gt;21 -->
<g id="edge38" class="edge">
<title>17&#45;&gt;21</title>
<path fill="none" stroke="grey" stroke-width="2" d="M766.18,-359.93C763.76,-340.08 756.91,-307.56 737.5,-288 703.05,-253.27 666.48,-288.12 633.5,-252 618.29,-235.34 613.18,-209.84 611.64,-190.4"/>
<polygon fill="grey" stroke="grey" stroke-width="2" points="615.14,-190.12 611.12,-180.32 608.14,-190.49 615.14,-190.12"/>
</g>
<!-- 17&#45;&gt;25 -->
<g id="edge48" class="edge">
<title>17&#45;&gt;25</title>
<path fill="none" stroke="grey" stroke-width="2" d="M760.16,-359.68C750.8,-339.6 732.73,-306.85 707.5,-288 698.23,-281.07 641.17,-263.8 596.08,-250.85"/>
<polygon fill="grey" stroke="grey" stroke-width="2" points="596.96,-247.46 586.38,-248.07 595.03,-254.19 596.96,-247.46"/>
</g>
<!-- 17&#45;&gt;26 -->
<g id="edge56" class="edge">
<title>17&#45;&gt;26</title>
<path fill="none" stroke="grey" stroke-width="2" d="M721.44,-371.51C621.02,-359.53 381.47,-330.97 257.61,-316.2"/>
<polygon fill="grey" stroke="grey" stroke-width="2" points="257.79,-312.69 247.44,-314.98 256.96,-319.64 257.79,-312.69"/>
</g>
<!-- 18&#45;&gt;17 -->
<g id="edge31" class="edge">
<title>18&#45;&gt;17</title>
<path fill="none" stroke="grey" stroke-width="2" d="M679.88,-431.88C695.04,-422.72 713.91,-411.34 730.24,-401.48"/>
<polygon fill="grey" stroke="grey" stroke-width="2" points="732.26,-404.35 739.01,-396.19 728.64,-398.36 732.26,-404.35"/>
</g>
<!-- 18&#45;&gt;25 -->
<g id="edge47" class="edge">
<title>18&#45;&gt;25</title>
<path fill="none" stroke="grey" stroke-width="2" d="M648,-431.89C641.16,-401.19 623.97,-335.52 593.5,-288 586.75,-277.48 577.56,-267.46 568.68,-259.02"/>
<polygon fill="grey" stroke="grey" stroke-width="2" points="570.77,-256.19 561.02,-252.04 566.05,-261.36 570.77,-256.19"/>
</g>
<!-- 19&#45;&gt;0 -->
<g id="edge1" class="edge">
<title>19&#45;&gt;0</title>
<path fill="none" stroke="grey" stroke-width="2" d="M877.7,-215.76C869.62,-183.03 847.63,-111.67 802.5,-72 768.91,-42.48 718.17,-29.25 683.76,-23.42"/>
<polygon fill="grey" stroke="grey" stroke-width="2" points="684.05,-19.93 673.63,-21.84 682.97,-26.84 684.05,-19.93"/>
</g>
<!-- 20&#45;&gt;0 -->
<g id="edge9" class="edge">
<title>20&#45;&gt;0</title>
<path fill="none" stroke="grey" stroke-width="2" d="M1021.29,-215.78C987.71,-183.1 909.84,-111.8 831.5,-72 783.44,-47.59 722.48,-32.9 683.97,-25.37"/>
<polygon fill="grey" stroke="grey" stroke-width="2" points="684.21,-21.85 673.73,-23.43 682.91,-28.73 684.21,-21.85"/>
</g>
<!-- 21&#45;&gt;0 -->
<g id="edge3" class="edge">
<title>21&#45;&gt;0</title>
<path fill="none" stroke="grey" stroke-width="2" d="M615.72,-143.87C621.71,-119.56 632.74,-74.82 639.84,-46.01"/>
<polygon fill="grey" stroke="grey" stroke-width="2" points="643.27,-46.74 642.26,-36.19 636.47,-45.06 643.27,-46.74"/>
</g>
<!-- 22 -->
<g id="node23" class="node">
<title>22</title>
<path fill="none" stroke="#d8a456" stroke-width="2" d="M1200,-684C1200,-684 1027,-684 1027,-684 1021,-684 1015,-678 1015,-672 1015,-672 1015,-660 1015,-660 1015,-654 1021,-648 1027,-648 1027,-648 1200,-648 1200,-648 1206,-648 1212,-654 1212,-660 1212,-660 1212,-672 1212,-672 1212,-678 1206,-684 1200,-684"/>
<text text-anchor="middle" x="1113.5" y="-663.5" font-family="sans" font-size="10.00">cat_barcode_identification_efficiency</text>
</g>
<!-- 22&#45;&gt;0 -->
<g id="edge13" class="edge">
<title>22&#45;&gt;0</title>
<path fill="none" stroke="grey" stroke-width="2" d="M1127.28,-647.79C1146.36,-622.18 1178.5,-571.8 1178.5,-523 1178.5,-523 1178.5,-523 1178.5,-161 1178.5,-58.46 804.92,-28.06 683.87,-20.9"/>
<polygon fill="grey" stroke="grey" stroke-width="2" points="683.8,-17.39 673.61,-20.31 683.4,-24.38 683.8,-17.39"/>
</g>
<!-- 23&#45;&gt;22 -->
<g id="edge39" class="edge">
<title>23&#45;&gt;22</title>
<path fill="none" stroke="grey" stroke-width="2" d="M1054.58,-791.87C1066.15,-767.35 1087.53,-722.03 1101.11,-693.26"/>
<polygon fill="grey" stroke="grey" stroke-width="2" points="1104.29,-694.73 1105.39,-684.19 1097.96,-691.74 1104.29,-694.73"/>
</g>
<!-- 24 -->
<g id="node25" class="node">
<title>24</title>
<path fill="none" stroke="#56d873" stroke-width="2" d="M748.5,-108C748.5,-108 706.5,-108 706.5,-108 700.5,-108 694.5,-102 694.5,-96 694.5,-96 694.5,-84 694.5,-84 694.5,-78 700.5,-72 706.5,-72 706.5,-72 748.5,-72 748.5,-72 754.5,-72 760.5,-78 760.5,-84 760.5,-84 760.5,-96 760.5,-96 760.5,-102 754.5,-108 748.5,-108"/>
<text text-anchor="middle" x="727.5" y="-87.5" font-family="sans" font-size="10.00">log_config</text>
</g>
<!-- 24&#45;&gt;0 -->
<g id="edge8" class="edge">
<title>24&#45;&gt;0</title>
<path fill="none" stroke="grey" stroke-width="2" d="M707.48,-71.7C697.37,-62.97 684.96,-52.24 673.98,-42.75"/>
<polygon fill="grey" stroke="grey" stroke-width="2" points="676.15,-39.99 666.29,-36.1 671.57,-45.29 676.15,-39.99"/>
</g>
<!-- 25&#45;&gt;0 -->
<g id="edge11" class="edge">
<title>25&#45;&gt;0</title>
<path fill="none" stroke="grey" stroke-width="2" d="M545.62,-215.98C552.31,-197.85 563.67,-168.46 575.5,-144 592.55,-108.74 615.38,-69.73 630.5,-44.82"/>
<polygon fill="grey" stroke="grey" stroke-width="2" points="633.66,-46.36 635.88,-36 627.68,-42.71 633.66,-46.36"/>
</g>
<!-- 26&#45;&gt;0 -->
<g id="edge5" class="edge">
<title>26&#45;&gt;0</title>
<path fill="none" stroke="grey" stroke-width="2" d="M247.15,-288.67C281.06,-279.49 322.61,-266.87 358.5,-252 420.6,-226.27 438.4,-221.21 491.5,-180 543.18,-139.89 545.71,-118.71 591.5,-72 600.78,-62.53 611.21,-52.37 620.46,-43.51"/>
<polygon fill="grey" stroke="grey" stroke-width="2" points="623.09,-45.84 627.91,-36.41 618.26,-40.77 623.09,-45.84"/>
</g>
<!-- 26&#45;&gt;25 -->
<g id="edge45" class="edge">
<title>26&#45;&gt;25</title>
<path fill="none" stroke="grey" stroke-width="2" d="M247.2,-290.77C252.03,-289.81 256.84,-288.88 261.5,-288 357.58,-269.96 383.05,-273.15 478.5,-252 479.94,-251.68 481.4,-251.35 482.87,-251"/>
<polygon fill="grey" stroke="grey" stroke-width="2" points="483.79,-254.38 492.67,-248.6 482.12,-247.58 483.79,-254.38"/>
</g>
<!-- 27 -->
<g id="node28" class="node">
<title>27</title>
<path fill="none" stroke="#68d856" stroke-width="2" d="M470.5,-180C470.5,-180 336.5,-180 336.5,-180 330.5,-180 324.5,-174 324.5,-168 324.5,-168 324.5,-156 324.5,-156 324.5,-150 330.5,-144 336.5,-144 336.5,-144 470.5,-144 470.5,-144 476.5,-144 482.5,-150 482.5,-156 482.5,-156 482.5,-168 482.5,-168 482.5,-174 476.5,-180 470.5,-180"/>
<text text-anchor="middle" x="403.5" y="-159.5" font-family="sans" font-size="10.00">generate_splitbam_statistics</text>
</g>
<!-- 26&#45;&gt;27 -->
<g id="edge59" class="edge">
<title>26&#45;&gt;27</title>
<path fill="none" stroke="grey" stroke-width="2" d="M247.22,-288.01C272.75,-279.63 301.28,-267.84 324.5,-252 349.62,-234.86 371.98,-208 386.44,-188.27"/>
<polygon fill="grey" stroke="grey" stroke-width="2" points="389.36,-190.2 392.32,-180.03 383.66,-186.13 389.36,-190.2"/>
</g>
<!-- 28 -->
<g id="node29" class="node">
<title>28</title>
<path fill="none" stroke="#5682d8" stroke-width="2" d="M304,-252C304,-252 221,-252 221,-252 215,-252 209,-246 209,-240 209,-240 209,-228 209,-228 209,-222 215,-216 221,-216 221,-216 304,-216 304,-216 310,-216 316,-222 316,-228 316,-228 316,-240 316,-240 316,-246 310,-252 304,-252"/>
<text text-anchor="middle" x="262.5" y="-231.5" font-family="sans" font-size="10.00">splitbams_merged</text>
</g>
<!-- 26&#45;&gt;28 -->
<g id="edge60" class="edge">
<title>26&#45;&gt;28</title>
<path fill="none" stroke="grey" stroke-width="2" d="M200.77,-287.7C211,-278.97 223.56,-268.24 234.68,-258.75"/>
<polygon fill="grey" stroke="grey" stroke-width="2" points="237.13,-261.26 242.46,-252.1 232.59,-255.94 237.13,-261.26"/>
</g>
<!-- 29 -->
<g id="node30" class="node">
<title>29</title>
<path fill="none" stroke="#97d856" stroke-width="2" d="M221,-108C221,-108 142,-108 142,-108 136,-108 130,-102 130,-96 130,-96 130,-84 130,-84 130,-78 136,-72 142,-72 142,-72 221,-72 221,-72 227,-72 233,-78 233,-84 233,-84 233,-96 233,-96 233,-102 227,-108 221,-108"/>
<text text-anchor="middle" x="181.5" y="-87.5" font-family="sans" font-size="10.00">generate_bigwigs</text>
</g>
<!-- 26&#45;&gt;29 -->
<g id="edge63" class="edge">
<title>26&#45;&gt;29</title>
<path fill="none" stroke="grey" stroke-width="2" d="M165.81,-287.75C142.29,-257.93 101.01,-195.01 123.5,-144 128.49,-132.69 137.21,-122.74 146.4,-114.62"/>
<polygon fill="grey" stroke="grey" stroke-width="2" points="148.67,-117.28 154.16,-108.23 144.22,-111.88 148.67,-117.28"/>
</g>
<!-- 30 -->
<g id="node31" class="node">
<title>30</title>
<path fill="none" stroke="#56d863" stroke-width="2" d="M218,-180C218,-180 145,-180 145,-180 139,-180 133,-174 133,-168 133,-168 133,-156 133,-156 133,-150 139,-144 145,-144 145,-144 218,-144 218,-144 224,-144 230,-150 230,-156 230,-156 230,-168 230,-168 230,-174 224,-180 218,-180"/>
<text text-anchor="middle" x="181.5" y="-159.5" font-family="sans" font-size="10.00">index_splitbams</text>
</g>
<!-- 26&#45;&gt;30 -->
<g id="edge66" class="edge">
<title>26&#45;&gt;30</title>
<path fill="none" stroke="grey" stroke-width="2" d="M180.62,-287.87C180.79,-263.67 181.1,-219.21 181.31,-190.39"/>
<polygon fill="grey" stroke="grey" stroke-width="2" points="184.81,-190.21 181.38,-180.19 177.81,-190.16 184.81,-190.21"/>
</g>
<!-- 27&#45;&gt;0 -->
<g id="edge6" class="edge">
<title>27&#45;&gt;0</title>
<path fill="none" stroke="grey" stroke-width="2" d="M417.58,-143.65C434.46,-123.85 464.52,-91.67 496.5,-72 532.05,-50.13 577.91,-35.61 609.51,-27.38"/>
<polygon fill="grey" stroke="grey" stroke-width="2" points="610.4,-30.77 619.24,-24.93 608.69,-23.98 610.4,-30.77"/>
</g>
<!-- 28&#45;&gt;0 -->
<g id="edge10" class="edge">
<title>28&#45;&gt;0</title>
<path fill="none" stroke="grey" stroke-width="2" d="M269.41,-215.75C277.88,-196.33 293.83,-164.8 315.5,-144 399.84,-63.04 541.72,-33.37 608.97,-23.48"/>
<polygon fill="grey" stroke="grey" stroke-width="2" points="609.69,-26.91 619.1,-22.05 608.71,-19.98 609.69,-26.91"/>
</g>
<!-- 28&#45;&gt;27 -->
<g id="edge58" class="edge">
<title>28&#45;&gt;27</title>
<path fill="none" stroke="grey" stroke-width="2" d="M296.99,-215.88C315.94,-206.47 339.63,-194.71 359.86,-184.67"/>
<polygon fill="grey" stroke="grey" stroke-width="2" points="361.47,-187.77 368.87,-180.19 358.36,-181.5 361.47,-187.77"/>
</g>
<!-- 28&#45;&gt;29 -->
<g id="edge62" class="edge">
<title>28&#45;&gt;29</title>
<path fill="none" stroke="grey" stroke-width="2" d="M260.73,-215.83C258.16,-197.05 252.13,-166.61 238.5,-144 231.96,-133.15 222.56,-123.14 213.28,-114.81"/>
<polygon fill="grey" stroke="grey" stroke-width="2" points="215.46,-112.06 205.58,-108.22 210.91,-117.38 215.46,-112.06"/>
</g>
<!-- 28&#45;&gt;30 -->
<g id="edge65" class="edge">
<title>28&#45;&gt;30</title>
<path fill="none" stroke="grey" stroke-width="2" d="M242.48,-215.7C232.37,-206.97 219.96,-196.24 208.98,-186.75"/>
<polygon fill="grey" stroke="grey" stroke-width="2" points="211.15,-183.99 201.29,-180.1 206.57,-189.29 211.15,-183.99"/>
</g>
<!-- 29&#45;&gt;0 -->
<g id="edge14" class="edge">
<title>29&#45;&gt;0</title>
<path fill="none" stroke="grey" stroke-width="2" d="M233.1,-80.09C248.94,-77.41 266.43,-74.52 282.5,-72 401.67,-53.3 543.16,-33.34 609.14,-24.16"/>
<polygon fill="grey" stroke="grey" stroke-width="2" points="609.65,-27.62 619.07,-22.78 608.68,-20.69 609.65,-27.62"/>
</g>
<!-- 30&#45;&gt;29 -->
<g id="edge64" class="edge">
<title>30&#45;&gt;29</title>
<path fill="none" stroke="grey" stroke-width="2" d="M181.5,-143.7C181.5,-135.98 181.5,-126.71 181.5,-118.11"/>
<polygon fill="grey" stroke="grey" stroke-width="2" points="185,-118.1 181.5,-108.1 178,-118.1 185,-118.1"/>
</g>
<!-- 31&#45;&gt;29 -->
<g id="edge61" class="edge">
<title>31&#45;&gt;29</title>
<path fill="none" stroke="grey" stroke-width="2" d="M63.08,-431.69C59.89,-382.72 56.45,-240.48 113.5,-144 120.48,-132.19 131.18,-122.05 142.04,-113.89"/>
<polygon fill="grey" stroke="grey" stroke-width="2" points="144.16,-116.67 150.31,-108.04 140.13,-110.95 144.16,-116.67"/>
</g>
</g>
</svg>
